<svg style="max-width: 100%; height: auto; font: 10px sans-serif; margin: 5px;" viewBox="-1465.170654296875,-1703.1759033203125,3265.5205078125,3482.23046875"><g fill="none" stroke="skyblue" stroke-opacity="0.4" stroke-width="1.5"><path d="M0,0C69.32191283553334,253.18120467527348,126.81705731536763,-229.83403571679884,253.63411463073527,-459.6680714335977"></path><path d="M0,0C69.32191283553334,253.18120467527348,257.82174349854057,-49.337598030029326,515.6434869970811,-98.67519606005865"></path><path d="M0,0C69.32191283553334,253.18120467527348,249.1761939379214,82.56799848979857,498.3523878758428,165.13599697959714"></path><path d="M0,0C69.32191283553334,253.18120467527348,183.80705378888177,187.40655532144848,367.61410757776355,374.81311064289696"></path><path d="M0,0C69.32191283553334,253.18120467527348,41.81805286772468,259.1476421933107,83.63610573544936,518.2952843866213"></path><path d="M0,0C46.214608557022224,168.78746978351563,-68.27380275927659,161.13251644775923,-136.54760551855318,322.26503289551846"></path><path d="M0,0C46.214608557022224,168.78746978351563,-174.67012759748664,10.73994995694715,-349.3402551949733,21.4798999138943"></path><path d="M0,0C23.10730427851111,84.3937348917578,-49.83985562045932,-71.91827856485281,-99.67971124091864,-143.83655712970562"></path><path d="M253.63411463073527,-459.6680714335977C295.90646706919114,-536.2794166725306,141.25222082974466,-595.9899832301421,161.43110951970817,-681.1314094058766"></path><path d="M253.63411463073527,-459.6680714335977C295.90646706919114,-536.2794166725306,321.5481554549181,-521.3089618676623,367.4836062341921,-595.7816707058998"></path><path d="M253.63411463073527,-459.6680714335977C295.90646706919114,-536.2794166725306,407.18746768853697,-457.55285613511006,465.35710592975653,-522.9175498686973"></path><path d="M515.6434869970811,-98.67519606005865C601.5840681632613,-115.12106207006843,562.4073654641678,-242.59885669898355,642.7512748161918,-277.2558362274098"></path><path d="M515.6434869970811,-98.67519606005865C601.5840681632613,-115.12106207006843,612.2408819253478,17.814390230155805,699.7038650575404,20.359303120178062"></path><path d="M498.3523878758428,165.13599697959714C581.4111191884832,192.65866314286333,595.9899832301421,141.25222082974463,681.1314094058766,161.43110951970814"></path><path d="M498.3523878758428,165.13599697959714C581.4111191884832,192.65866314286333,562.4073654641678,242.59885669898355,642.7512748161918,277.2558362274098"></path><path d="M367.61410757776355,374.81311064289696C428.88312550739084,437.28196241671316,511.73628449042354,336.5742490683688,584.8414679890554,384.65628464956427"></path><path d="M367.61410757776355,374.81311064289696C428.88312550739084,437.28196241671316,420.3230031945993,445.51635546349235,480.36914650811354,509.16154910113414"></path><path d="M367.61410757776355,374.81311064289696C428.88312550739084,437.28196241671316,336.57424906836883,511.7362844904235,384.6562846495644,584.8414679890553"></path><path d="M83.63610573544936,518.2952843866213C97.57545669135759,604.6778317843916,192.65866314286336,581.4111191884832,220.18132930612956,664.4698505011237"></path><path d="M83.63610573544936,518.2952843866213C97.57545669135759,604.6778317843916,3.750480822388769e-14,612.5,4.2862637970157365e-14,700"></path><path d="M-136.54760551855318,322.26503289551846C-204.8214082778298,483.39754934327766,-106.16422547432006,514.1538264269145,-141.55230063242675,685.538435235886"></path><path d="M-136.54760551855318,322.26503289551846C-204.8214082778298,483.39754934327766,-193.83322733915938,487.9074502190818,-258.4443031188792,650.5432669587757"></path><path d="M-136.54760551855318,322.26503289551846C-170.6845068981915,402.83129111939803,-254.40278118851134,355.9290307400486,-305.2833374262136,427.1148368880583"></path><path d="M-349.3402551949733,21.4798999138943C-436.67531899371664,26.84987489236788,-374.5730185444918,226.05597487893974,-449.48762225339016,271.2671698547277"></path><path d="M-349.3402551949733,21.4798999138943C-436.67531899371664,26.84987489236788,-437.47943378441147,-4.242053237615447,-524.9753205412937,-5.0904638851385355"></path><path d="M-349.3402551949733,21.4798999138943C-436.67531899371664,26.84987489236788,-411.11552159383484,-149.63381270498024,-493.3386259126018,-179.56057524597628"></path><path d="M-99.67971124091864,-143.83655712970562C-199.3594224818373,-287.6731142594113,-252.23994824270008,-242.64172870823347,-378.35992236405014,-363.9625930623502"></path><path d="M-99.67971124091864,-143.83655712970562C-149.51956686137797,-215.7548356945585,-103.97093858527866,-241.03172805607193,-138.62791811370488,-321.3756374080959"></path><path d="M161.43110951970817,-681.1314094058766C181.6099982096717,-766.2728355816113,45.78905276699977,-786.1676746386237,50.876725296666415,-873.5196384873597"></path><path d="M161.43110951970817,-681.1314094058766C181.6099982096717,-766.2728355816113,91.42316987361886,-782.1752067217801,101.58129985957652,-869.0835630242001"></path><path d="M161.43110951970817,-681.1314094058766C181.6099982096717,-766.2728355816113,136.7479399127077,-775.5361054971138,151.94215545856412,-861.7067838856821"></path><path d="M161.43110951970817,-681.1314094058766C181.6099982096717,-766.2728355816113,181.6099982096717,-766.2728355816113,201.78888689963523,-851.4142617573458"></path><path d="M161.43110951970817,-681.1314094058766C181.6099982096717,-766.2728355816113,225.85754575998362,-754.4167409484475,250.95282862220404,-838.2408232760528"></path><path d="M161.43110951970817,-681.1314094058766C181.6099982096717,-766.2728355816113,269.3408628689642,-740.0079388689028,299.2676254099602,-822.2310431876698"></path><path d="M161.43110951970817,-681.1314094058766C181.6099982096717,-766.2728355816113,311.91281575583605,-723.0951841682157,346.5697952842623,-803.4390935202398"></path><path d="M367.4836062341921,-595.7816707058998C413.41905701346616,-670.2543795441372,393.74999999999994,-681.9950054802455,437.49999999999994,-757.7722283113839"></path><path d="M367.4836062341921,-595.7816707058998C413.41905701346616,-670.2543795441372,432.7383202307598,-657.9466514876874,480.8203558119554,-731.0518349863194"></path><path d="M465.35710592975653,-522.9175498686973C523.526744170976,-588.2822436022844,506.19524262814974,-603.2599989561952,562.4391584757219,-670.2888877291058"></path><path d="M465.35710592975653,-522.9175498686973C523.526744170976,-588.2822436022844,540.4152898216278,-572.8067427387758,600.4614331351419,-636.4519363764175"></path><path d="M642.7512748161918,-277.2558362274098C723.0951841682157,-311.912815755836,603.2599989561953,-506.1952426281497,670.2888877291059,-562.4391584757218"></path><path d="M642.7512748161918,-277.2558362274098C723.0951841682157,-311.912815755836,631.6720142945969,-470.2623909659441,701.8577936606632,-522.5137677399379"></path><path d="M642.7512748161918,-277.2558362274098C723.0951841682157,-311.912815755836,657.9466514876875,-432.7383202307597,731.0518349863195,-480.82035581195527"></path><path d="M642.7512748161918,-277.2558362274098C723.0951841682157,-311.912815755836,681.9950054802454,-393.75,757.7722283113837,-437.5"></path><path d="M642.7512748161918,-277.2558362274098C723.0951841682157,-311.912815755836,703.7357042546872,-353.429354407864,781.9285602829857,-392.69928267540445"></path><path d="M642.7512748161918,-277.2558362274098C723.0951841682157,-311.912815755836,723.0951841682157,-311.912815755836,803.4390935202398,-346.5697952842622"></path><path d="M642.7512748161918,-277.2558362274098C723.0951841682157,-311.912815755836,740.0079388689029,-269.34086286896417,822.2310431876699,-299.26762540996015"></path><path d="M642.7512748161918,-277.2558362274098C723.0951841682157,-311.912815755836,754.4167409484475,-225.8575457599836,838.2408232760528,-250.95282862220398"></path><path d="M642.7512748161918,-277.2558362274098C723.0951841682157,-311.912815755836,766.2728355816113,-181.60999820967166,851.4142617573458,-201.78888689963517"></path><path d="M642.7512748161918,-277.2558362274098C723.0951841682157,-311.912815755836,775.5361054971138,-136.74793991270766,861.7067838856821,-151.94215545856406"></path><path d="M642.7512748161918,-277.2558362274098C723.0951841682157,-311.912815755836,782.1752067217801,-91.42316987361882,869.0835630242001,-101.58129985957646"></path><path d="M699.7038650575404,20.359303120178062C787.166848189733,22.904216010200322,787.5,0,875,0"></path><path d="M699.7038650575404,20.359303120178062C787.166848189733,22.904216010200322,786.1676746386237,45.789052766999724,873.5196384873597,50.87672529666636"></path><path d="M681.1314094058766,161.43110951970814C766.2728355816113,181.60999820967166,775.5361054971138,136.74793991270766,861.7067838856821,151.94215545856406"></path><path d="M681.1314094058766,161.43110951970814C766.2728355816113,181.60999820967166,766.2728355816113,181.60999820967166,851.4142617573458,201.78888689963517"></path><path d="M681.1314094058766,161.43110951970814C766.2728355816113,181.60999820967166,754.4167409484475,225.85754575998345,838.2408232760528,250.95282862220384"></path><path d="M642.7512748161918,277.2558362274098C723.0951841682157,311.912815755836,723.0951841682157,311.912815755836,803.4390935202398,346.5697952842622"></path><path d="M584.8414679890554,384.65628464956427C657.9466514876874,432.7383202307598,681.9950054802455,393.7499999999999,757.7722283113839,437.49999999999983"></path><path d="M584.8414679890554,384.65628464956427C657.9466514876874,432.7383202307598,657.9466514876874,432.7383202307598,731.0518349863194,480.8203558119554"></path><path d="M584.8414679890554,384.65628464956427C657.9466514876874,432.7383202307598,631.672014294597,470.262390965944,701.8577936606633,522.5137677399379"></path><path d="M480.36914650811354,509.16154910113414C540.4152898216278,572.8067427387758,572.8067427387758,540.4152898216277,636.4519363764176,600.4614331351418"></path><path d="M480.36914650811354,509.16154910113414C540.4152898216278,572.8067427387758,540.4152898216278,572.8067427387758,600.4614331351419,636.4519363764176"></path><path d="M480.36914650811354,509.16154910113414C540.4152898216278,572.8067427387758,506.19524262814986,603.2599989561951,562.439158475722,670.2888877291057"></path><path d="M384.6562846495644,584.8414679890553C432.7383202307599,657.9466514876873,432.7383202307599,657.9466514876873,480.82035581195544,731.0518349863192"></path><path d="M220.18132930612956,664.4698505011237C247.70399546939575,747.5285818137642,353.429354407864,703.7357042546871,392.6992826754045,781.9285602829857"></path><path d="M220.18132930612956,664.4698505011237C247.70399546939575,747.5285818137642,311.9128157558362,723.0951841682157,346.56979528426245,803.4390935202397"></path><path d="M220.18132930612956,664.4698505011237C247.70399546939575,747.5285818137642,269.3408628689642,740.0079388689028,299.2676254099602,822.2310431876698"></path><path d="M220.18132930612956,664.4698505011237C247.70399546939575,747.5285818137642,225.85754575998345,754.4167409484475,250.95282862220384,838.2408232760528"></path><path d="M220.18132930612956,664.4698505011237C247.70399546939575,747.5285818137642,181.6099982096717,766.2728355816113,201.78888689963523,851.4142617573458"></path><path d="M220.18132930612956,664.4698505011237C247.70399546939575,747.5285818137642,136.74793991270786,775.5361054971138,151.94215545856432,861.7067838856821"></path><path d="M4.2862637970157365e-14,700C4.8220467716427034e-14,787.5,45.789052766999596,786.1676746386237,50.876725296666216,873.5196384873597"></path><path d="M4.2862637970157365e-14,700C4.8220467716427034e-14,787.5,4.8220467716427034e-14,787.5,5.35782974626967e-14,875"></path><path d="M4.2862637970157365e-14,700C4.8220467716427034e-14,787.5,-45.789052766999845,786.1676746386237,-50.8767252966665,873.5196384873597"></path><path d="M-141.55230063242675,685.538435235886C-159.2463382114801,771.2307396403718,-136.74793991270778,775.5361054971138,-151.9421554585642,861.7067838856821"></path><path d="M-141.55230063242675,685.538435235886C-159.2463382114801,771.2307396403718,-181.60999820967197,766.2728355816112,-201.78888689963551,851.4142617573457"></path><path d="M-258.4443031188792,650.5432669587757C-290.74984100873905,731.8611753286226,-269.3408628689641,740.0079388689029,-299.26762540996015,822.2310431876699"></path><path d="M-258.4443031188792,650.5432669587757C-290.74984100873905,731.8611753286226,-311.9128157558358,723.0951841682158,-346.56979528426206,803.4390935202398"></path><path d="M-305.2833374262136,427.1148368880583C-407.0444499016182,569.4864491840777,-350.00000000000006,606.217782649107,-437.5000000000001,757.7722283113837"></path><path d="M-305.2833374262136,427.1148368880583C-407.0444499016182,569.4864491840777,-384.6562846495639,584.8414679890557,-480.82035581195487,731.0518349863196"></path><path d="M-305.2833374262136,427.1148368880583C-356.16389366391587,498.300643036068,-420.3230031945992,445.51635546349246,-480.3691465081134,509.16154910113426"></path><path d="M-449.48762225339016,271.2671698547277C-599.3168296711868,361.6895598063036,-561.4862349285307,418.0110141919503,-701.8577936606633,522.5137677399379"></path><path d="M-449.48762225339016,271.2671698547277C-599.3168296711868,361.6895598063036,-584.8414679890557,384.65628464956404,-731.0518349863195,480.82035581195504"></path><path d="M-449.48762225339016,271.2671698547277C-524.4022259622885,316.47836483051566,-562.4073654641678,242.5988566989835,-642.7512748161918,277.2558362274097"></path><path d="M-524.9753205412937,-5.0904638851385355C-612.4712072981761,-5.938874532661625,-603.1947487199775,106.35950882099478,-689.3654271085456,121.55372436685117"></path><path d="M-524.9753205412937,-5.0904638851385355C-612.4712072981761,-5.938874532661625,-612.2408819253478,-17.814390230156004,-699.7038650575404,-20.35930312017829"></path><path d="M-524.9753205412937,-5.0904638851385355C-612.4712072981761,-5.938874532661625,-603.1947487199775,-106.35950882099463,-689.3654271085456,-121.55372436685101"></path><path d="M-493.3386259126018,-179.56057524597628C-575.5617302313688,-209.48733778697232,-586.7685762932368,-175.66698003554285,-670.5926586208421,-200.76226289776326"></path><path d="M-493.3386259126018,-179.56057524597628C-575.5617302313688,-209.48733778697232,-562.4073654641679,-242.5988566989834,-642.7512748161919,-277.2558362274096"></path><path d="M-378.35992236405014,-363.9625930623502C-441.4199094247252,-424.6230252394086,-511.7362844904237,-336.57424906836843,-584.8414679890557,-384.6562846495639"></path><path d="M-378.35992236405014,-363.9625930623502C-441.4199094247252,-424.6230252394086,-433.10290347676045,-433.10290347676033,-494.9747468305834,-494.97474683058323"></path><path d="M-378.35992236405014,-363.9625930623502C-441.4199094247252,-424.6230252394086,-365.7596374179565,-491.30045556246426,-418.0110141919503,-561.4862349285306"></path><path d="M-138.62791811370488,-321.3756374080959C-207.94187717055732,-482.06345611214385,-262.5000000000002,-454.66333698683013,-350.0000000000003,-606.2177826491069"></path><path d="M-138.62791811370488,-321.3756374080959C-173.28489764213109,-401.7195467601199,-125.47641431110216,-419.1204116380263,-150.5716971733226,-502.94449396563164"></path><path d="M-480.3691465081134,509.16154910113426C-540.4152898216275,572.806742738776,-506.1952426281497,603.2599989561953,-562.4391584757218,670.2888877291059"></path><path d="M-480.3691465081134,509.16154910113426C-540.4152898216275,572.806742738776,-540.4152898216275,572.806742738776,-600.4614331351418,636.4519363764178"></path><path d="M-480.3691465081134,509.16154910113426C-540.4152898216275,572.806742738776,-572.8067427387758,540.4152898216278,-636.4519363764176,600.4614331351419"></path><path d="M-642.7512748161918,277.2558362274097C-723.0951841682157,311.91281575583594,-703.7357042546871,353.4293544078641,-781.9285602829857,392.69928267540456"></path><path d="M-642.7512748161918,277.2558362274097C-723.0951841682157,311.91281575583594,-723.0951841682157,311.91281575583594,-803.4390935202398,346.5697952842621"></path><path d="M-642.7512748161918,277.2558362274097C-723.0951841682157,311.91281575583594,-740.0079388689027,269.34086286896456,-822.2310431876697,299.2676254099606"></path><path d="M-689.3654271085456,121.55372436685117C-775.5361054971139,136.74793991270758,-766.2728355816113,181.60999820967174,-851.4142617573458,201.78888689963526"></path><path d="M-689.3654271085456,121.55372436685117C-775.5361054971139,136.74793991270758,-775.5361054971139,136.74793991270758,-861.7067838856822,151.94215545856397"></path><path d="M-689.3654271085456,121.55372436685117C-775.5361054971139,136.74793991270758,-782.1752067217801,91.42316987361856,-869.0835630242001,101.58129985957619"></path><path d="M-699.7038650575404,-20.35930312017829C-787.166848189733,-22.904216010200575,-787.5,9.644093543285407e-14,-875,1.071565949253934e-13"></path><path d="M-699.7038650575404,-20.35930312017829C-787.166848189733,-22.904216010200575,-786.1676746386237,-45.789052766999795,-873.5196384873597,-50.87672529666644"></path><path d="M-689.3654271085456,-121.55372436685101C-775.5361054971139,-136.7479399127074,-775.5361054971139,-136.7479399127074,-861.7067838856822,-151.94215545856378"></path><path d="M-670.5926586208421,-200.76226289776326C-754.4167409484475,-225.85754575998368,-754.4167409484475,-225.85754575998368,-838.2408232760527,-250.95282862220407"></path><path d="M-642.7512748161919,-277.2558362274096C-723.0951841682158,-311.9128157558358,-723.0951841682158,-311.9128157558358,-803.4390935202398,-346.569795284262"></path><path d="M-584.8414679890557,-384.6562846495639C-657.9466514876876,-432.73832023075937,-681.9950054802454,-393.7500000000001,-757.7722283113837,-437.5000000000001"></path><path d="M-584.8414679890557,-384.6562846495639C-657.9466514876876,-432.73832023075937,-657.9466514876876,-432.73832023075937,-731.0518349863196,-480.82035581195487"></path><path d="M-584.8414679890557,-384.6562846495639C-657.9466514876876,-432.73832023075937,-631.6720142945971,-470.26239096594395,-701.8577936606634,-522.5137677399377"></path><path d="M-494.9747468305834,-494.97474683058323C-556.8465901844063,-556.8465901844062,-572.8067427387763,-540.4152898216273,-636.4519363764181,-600.4614331351414"></path><path d="M-494.9747468305834,-494.97474683058323C-556.8465901844063,-556.8465901844062,-540.4152898216274,-572.806742738776,-600.4614331351416,-636.4519363764178"></path><path d="M-418.0110141919503,-561.4862349285306C-470.2623909659441,-631.6720142945969,-470.2623909659441,-631.6720142945969,-522.5137677399379,-701.8577936606632"></path><path d="M-350.0000000000003,-606.2177826491069C-393.75000000000034,-681.9950054802453,-393.75000000000034,-681.9950054802453,-437.5000000000004,-757.7722283113836"></path><path d="M-150.5716971733226,-502.94449396563164C-200.76226289776346,-670.5926586208421,-277.25583622740976,-642.7512748161918,-346.56979528426217,-803.4390935202398"></path><path d="M-150.5716971733226,-502.94449396563164C-200.76226289776346,-670.5926586208421,-239.41410032796853,-657.7848345501358,-299.26762540996066,-822.2310431876697"></path><path d="M-150.5716971733226,-502.94449396563164C-200.76226289776346,-670.5926586208421,-200.76226289776346,-670.5926586208421,-250.95282862220432,-838.2408232760527"></path><path d="M-150.5716971733226,-502.94449396563164C-175.66698003554302,-586.7685762932368,-71.10690990170336,-608.35849411694,-81.26503988766099,-695.2668504193601"></path><path d="M-81.26503988766099,-695.2668504193601C-91.42316987361862,-782.1752067217801,-136.74793991270764,-775.5361054971138,-151.94215545856403,-861.7067838856821"></path><path d="M-81.26503988766099,-695.2668504193601C-91.42316987361862,-782.1752067217801,-91.42316987361862,-782.1752067217801,-101.58129985957623,-869.0835630242001"></path><path d="M-81.26503988766099,-695.2668504193601C-91.42316987361862,-782.1752067217801,-45.78905276700004,-786.1676746386237,-50.876725296666706,-873.5196384873597"></path></g><g stroke-linejoin="round" stroke-width="3"><g transform="
        rotate(266.66666666666663)
        translate(875,0)
      "><circle fill="#99a" r="5"></circle><text dy="0.25em" style="font-size: 36px;" x="-10" text-anchor="end" transform="rotate(180)">томтор - Хонуу</text></g><g transform="
        rotate(263.3333333333333)
        translate(875,0)
      "><circle fill="#99a" r="5"></circle><text dy="0.25em" style="font-size: 36px;" x="-10" text-anchor="end" transform="rotate(180)">теплый ключ - Хонуу</text></g><g transform="
        rotate(260.00000000000006)
        translate(875,0)
      "><circle fill="#99a" r="5"></circle><text dy="0.25em" style="font-size: 36px;" x="-10" text-anchor="end" transform="rotate(180)">теплый ключ - Томтор</text></g><g transform="
        rotate(263.3333333333333)
        translate(700,0)
      "><text dy="0.25em" style="font-size: 36px;" x="10" text-anchor="start" transform="rotate(180)" stroke="white">малая авиация</text><circle fill="skyblue" r="5"></circle><text dy="0.25em" style="font-size: 36px;" x="10" text-anchor="start" transform="rotate(180)">малая авиация</text></g><g transform="
        rotate(253.33333333333331)
        translate(875,0)
      "><circle fill="#99a" r="5"></circle><text dy="0.25em" style="font-size: 36px;" x="-10" text-anchor="end" transform="rotate(180)">сертификация дронов</text></g><g transform="
        rotate(250)
        translate(875,0)
      "><circle fill="#99a" r="5"></circle><text dy="0.25em" style="font-size: 36px;" x="-10" text-anchor="end" transform="rotate(180)">сертификация грузопассажирских дирижаблей</text></g><g transform="
        rotate(246.66666666666669)
        translate(875,0)
      "><circle fill="#99a" r="5"></circle><text dy="0.25em" style="font-size: 36px;" x="-10" text-anchor="end" transform="rotate(180)">инфраструктура грузопассажирских дирижаблей</text></g><g transform="
        rotate(239.99999999999994)
        translate(875,0)
      "><circle fill="#99a" r="5"></circle><text dy="0.25em" style="font-size: 36px;" x="-10" text-anchor="end" transform="rotate(180)">инфраструктура грузовых воздушных дронов</text></g><g transform="
        rotate(233.33333333333331)
        translate(875,0)
      "><circle fill="#99a" r="5"></circle><text dy="0.25em" style="font-size: 36px;" x="-10" text-anchor="end" transform="rotate(180)">инфраструктура беспилотных дронов</text></g><g transform="
        rotate(226.66666666666669)
        translate(875,0)
      "><circle fill="#99a" r="5"></circle><text dy="0.25em" style="font-size: 36px;" x="-10" text-anchor="end" transform="rotate(180)">парк болотоходов</text></g><g transform="
        rotate(223.33333333333331)
        translate(875,0)
      "><circle fill="#99a" r="5"></circle><text dy="0.25em" style="font-size: 36px;" x="-10" text-anchor="end" transform="rotate(180)">инфрастуктура болотоходов</text></g><g transform="
        rotate(216.66666666666669)
        translate(875,0)
      "><circle fill="#99a" r="5"></circle><text dy="0.25em" style="font-size: 36px;" x="-10" text-anchor="end" transform="rotate(180)">сертификация болотоходов</text></g><g transform="
        rotate(213.33333333333331)
        translate(875,0)
      "><circle fill="#99a" r="5"></circle><text dy="0.25em" style="font-size: 36px;" x="-10" text-anchor="end" transform="rotate(180)">понтонные дороги</text></g><g transform="
        rotate(210.00000000000006)
        translate(875,0)
      "><circle fill="#99a" r="5"></circle><text dy="0.25em" style="font-size: 36px;" x="-10" text-anchor="end" transform="rotate(180)">грузопассажирские перевозки на Шерпах</text></g><g transform="
        rotate(203.33333333333331)
        translate(875,0)
      "><circle fill="#99a" r="5"></circle><text dy="0.25em" style="font-size: 36px;" x="-10" text-anchor="end" transform="rotate(180)">добровольное оснащение домохозяйств</text></g><g transform="
        rotate(196.66666666666669)
        translate(875,0)
      "><circle fill="#99a" r="5"></circle><text dy="0.25em" style="font-size: 36px;" x="-10" text-anchor="end" transform="rotate(180)">тестирование в новом строительстве</text></g><g transform="
        rotate(190)
        translate(875,0)
      "><circle fill="#99a" r="5"></circle><text dy="0.25em" style="font-size: 36px;" x="-10" text-anchor="end" transform="rotate(180)">ландшафтные отели</text></g><g transform="
        rotate(183.33333333333337)
        translate(875,0)
      "><circle fill="#99a" r="5"></circle><text dy="0.25em" style="font-size: 36px;" x="-10" text-anchor="end" transform="rotate(180)">шелтеры</text></g><g transform="
        rotate(180)
        translate(875,0)
      "><circle fill="#99a" r="5"></circle><text dy="0.25em" style="font-size: 36px;" x="-10" text-anchor="end" transform="rotate(180)">модель "Тимптон"</text></g><g transform="
        rotate(173.33333333333337)
        translate(875,0)
      "><circle fill="#99a" r="5"></circle><text dy="0.25em" style="font-size: 36px;" x="-10" text-anchor="end" transform="rotate(180)">юниты</text></g><g transform="
        rotate(170)
        translate(875,0)
      "><circle fill="#99a" r="5"></circle><text dy="0.25em" style="font-size: 36px;" x="-10" text-anchor="end" transform="rotate(180)">сьюты</text></g><g transform="
        rotate(166.66666666666663)
        translate(875,0)
      "><circle fill="#99a" r="5"></circle><text dy="0.25em" style="font-size: 36px;" x="-10" text-anchor="end" transform="rotate(180)">резеденция в Оймяконе</text></g><g transform="
        rotate(159.99999999999997)
        translate(875,0)
      "><circle fill="#99a" r="5"></circle><text dy="0.25em" style="font-size: 36px;" x="-10" text-anchor="end" transform="rotate(180)">техническими объектами</text></g><g transform="
        rotate(156.66666666666669)
        translate(875,0)
      "><circle fill="#99a" r="5"></circle><text dy="0.25em" style="font-size: 36px;" x="-10" text-anchor="end" transform="rotate(180)">инфраструктурными объектами</text></g><g transform="
        rotate(153.33333333333331)
        translate(875,0)
      "><circle fill="#99a" r="5"></circle><text dy="0.25em" style="font-size: 36px;" x="-10" text-anchor="end" transform="rotate(180)">земельными ресурсами</text></g><g transform="
        rotate(136.66666666666669)
        translate(875,0)
      "><circle fill="#99a" r="5"></circle><text dy="0.25em" style="font-size: 36px;" x="-10" text-anchor="end" transform="rotate(180)">якутск</text></g><g transform="
        rotate(133.33333333333331)
        translate(875,0)
      "><circle fill="#99a" r="5"></circle><text dy="0.25em" style="font-size: 36px;" x="-10" text-anchor="end" transform="rotate(180)">усть-Нерва</text></g><g transform="
        rotate(130)
        translate(875,0)
      "><circle fill="#99a" r="5"></circle><text dy="0.25em" style="font-size: 36px;" x="-10" text-anchor="end" transform="rotate(180)">магадан</text></g><g transform="
        rotate(253.33333333333331)
        translate(525,0)
      "><text dy="0.25em" style="font-size: 36px;" x="10" text-anchor="start" transform="rotate(180)" stroke="white">I</text><circle fill="skyblue" r="5"></circle><text dy="0.25em" style="font-size: 36px;" x="10" text-anchor="start" transform="rotate(180)">I</text></g><g transform="
        rotate(239.99999999999994)
        translate(700,0)
      "><text dy="0.25em" style="font-size: 36px;" x="10" text-anchor="start" transform="rotate(180)" stroke="white">II</text><circle fill="skyblue" r="5"></circle><text dy="0.25em" style="font-size: 36px;" x="10" text-anchor="start" transform="rotate(180)">II</text></g><g transform="
        rotate(233.33333333333331)
        translate(700,0)
      "><text dy="0.25em" style="font-size: 36px;" x="10" text-anchor="start" transform="rotate(180)" stroke="white">III</text><circle fill="skyblue" r="5"></circle><text dy="0.25em" style="font-size: 36px;" x="10" text-anchor="start" transform="rotate(180)">III</text></g><g transform="
        rotate(225)
        translate(700,0)
      "><text dy="0.25em" style="font-size: 36px;" x="10" text-anchor="start" transform="rotate(180)" stroke="white">II</text><circle fill="skyblue" r="5"></circle><text dy="0.25em" style="font-size: 36px;" x="10" text-anchor="start" transform="rotate(180)">II</text></g><g transform="
        rotate(213.33333333333331)
        translate(700,0)
      "><text dy="0.25em" style="font-size: 36px;" x="10" text-anchor="start" transform="rotate(180)" stroke="white">I</text><circle fill="skyblue" r="5"></circle><text dy="0.25em" style="font-size: 36px;" x="10" text-anchor="start" transform="rotate(180)">I</text></g><g transform="
        rotate(203.33333333333331)
        translate(700,0)
      "><text dy="0.25em" style="font-size: 36px;" x="10" text-anchor="start" transform="rotate(180)" stroke="white">II</text><circle fill="skyblue" r="5"></circle><text dy="0.25em" style="font-size: 36px;" x="10" text-anchor="start" transform="rotate(180)">II</text></g><g transform="
        rotate(196.66666666666669)
        translate(700,0)
      "><text dy="0.25em" style="font-size: 36px;" x="10" text-anchor="start" transform="rotate(180)" stroke="white">I</text><circle fill="skyblue" r="5"></circle><text dy="0.25em" style="font-size: 36px;" x="10" text-anchor="start" transform="rotate(180)">I</text></g><g transform="
        rotate(190)
        translate(700,0)
      "><text dy="0.25em" style="font-size: 36px;" x="10" text-anchor="start" transform="rotate(180)" stroke="white">III</text><circle fill="skyblue" r="5"></circle><text dy="0.25em" style="font-size: 36px;" x="10" text-anchor="start" transform="rotate(180)">III</text></g><g transform="
        rotate(181.66666666666669)
        translate(700,0)
      "><text dy="0.25em" style="font-size: 36px;" x="10" text-anchor="start" transform="rotate(180)" stroke="white">II</text><circle fill="skyblue" r="5"></circle><text dy="0.25em" style="font-size: 36px;" x="10" text-anchor="start" transform="rotate(180)">II</text></g><g transform="
        rotate(170)
        translate(700,0)
      "><text dy="0.25em" style="font-size: 36px;" x="10" text-anchor="start" transform="rotate(180)" stroke="white">I</text><circle fill="skyblue" r="5"></circle><text dy="0.25em" style="font-size: 36px;" x="10" text-anchor="start" transform="rotate(180)">I</text></g><g transform="
        rotate(156.66666666666669)
        translate(700,0)
      "><text dy="0.25em" style="font-size: 36px;" x="10" text-anchor="start" transform="rotate(180)" stroke="white">управление</text><circle fill="skyblue" r="5"></circle><text dy="0.25em" style="font-size: 36px;" x="10" text-anchor="start" transform="rotate(180)">управление</text></g><g transform="
        rotate(146.66666666666669)
        translate(875,0)
      "><circle fill="#99a" r="5"></circle><text dy="0.25em" style="font-size: 36px;" x="-10" text-anchor="end" transform="rotate(180)">сотрудничество со стартапами</text></g><g transform="
        rotate(143.33333333333334)
        translate(875,0)
      "><circle fill="#99a" r="5"></circle><text dy="0.25em" style="font-size: 36px;" x="-10" text-anchor="end" transform="rotate(180)">мастер-план развития кластера</text></g><g transform="
        rotate(133.33333333333331)
        translate(700,0)
      "><text dy="0.25em" style="font-size: 36px;" x="10" text-anchor="start" transform="rotate(180)" stroke="white">переработка отходов</text><circle fill="skyblue" r="5"></circle><text dy="0.25em" style="font-size: 36px;" x="10" text-anchor="start" transform="rotate(180)">переработка отходов</text></g><g transform="
        rotate(123.33333333333331)
        translate(875,0)
      "><circle fill="#99a" r="5"></circle><text dy="0.25em" style="font-size: 36px;" x="-10" text-anchor="end" transform="rotate(180)">природоохранные мероприятия</text></g><g transform="
        rotate(120)
        translate(875,0)
      "><circle fill="#99a" r="5"></circle><text dy="0.25em" style="font-size: 36px;" x="-10" text-anchor="end" transform="rotate(180)">мониторинг потребления карбона</text></g><g transform="
        rotate(113.33333333333331)
        translate(875,0)
      "><circle fill="#99a" r="5"></circle><text dy="0.25em" style="font-size: 36px;" x="-10" text-anchor="end" transform="rotate(180)">природоохранные мероприятия</text></g><g transform="
        rotate(110)
        translate(875,0)
      "><circle fill="#99a" r="5"></circle><text dy="0.25em" style="font-size: 36px;" x="-10" text-anchor="end" transform="rotate(180)">мониторинг потребления карбона</text></g><g transform="
        rotate(103.33333333333337)
        translate(875,0)
      "><circle fill="#99a" r="5"></circle><text dy="0.25em" style="font-size: 36px;" x="-10" text-anchor="end" transform="rotate(180)">природоохранные мероприятия</text></g><g transform="
        rotate(100)
        translate(875,0)
      "><circle fill="#99a" r="5"></circle><text dy="0.25em" style="font-size: 36px;" x="-10" text-anchor="end" transform="rotate(180)">мониторинг потребления карбона</text></g><g transform="
        rotate(93.33333333333334)
        translate(875,0)
      "><circle fill="#99a" r="5"></circle><text dy="0.25em" style="font-size: 36px;" x="-10" text-anchor="end" transform="rotate(180)">контроль туристических информационных порталов</text></g><g transform="
        rotate(90)
        translate(875,0)
      "><circle fill="#99a" r="5"></circle><text dy="0.25em" style="font-size: 36px;" x="-10" text-anchor="end" transform="rotate(180)">внедрение IT-технологий</text></g><g transform="
        rotate(86.66666666666666)
        translate(875,0)
      "><circle fill="#99a" r="5"></circle><text dy="0.25em" style="font-size: 36px;" x="10" text-anchor="start">внедрение GIS-технологий</text></g><g transform="
        rotate(80)
        translate(875,0)
      "><circle fill="#99a" r="5"></circle><text dy="0.25em" style="font-size: 36px;" x="10" text-anchor="start">экологический мониторинг</text></g><g transform="
        rotate(76.66666666666666)
        translate(875,0)
      "><circle fill="#99a" r="5"></circle><text dy="0.25em" style="font-size: 36px;" x="10" text-anchor="start">управление рекреационной инфраструктурой</text></g><g transform="
        rotate(73.33333333333334)
        translate(875,0)
      "><circle fill="#99a" r="5"></circle><text dy="0.25em" style="font-size: 36px;" x="10" text-anchor="start">управление потоками посетителей</text></g><g transform="
        rotate(70)
        translate(875,0)
      "><circle fill="#99a" r="5"></circle><text dy="0.25em" style="font-size: 36px;" x="10" text-anchor="start">социально-экономический мониторинг</text></g><g transform="
        rotate(66.66666666666666)
        translate(875,0)
      "><circle fill="#99a" r="5"></circle><text dy="0.25em" style="font-size: 36px;" x="10" text-anchor="start">развитие безбарьерной среды</text></g><g transform="
        rotate(63.33333333333334)
        translate(875,0)
      "><circle fill="#99a" r="5"></circle><text dy="0.25em" style="font-size: 36px;" x="10" text-anchor="start">мониторинг антропогенной нагрузки</text></g><g transform="
        rotate(56.66666666666666)
        translate(875,0)
      "><circle fill="#99a" r="5"></circle><text dy="0.25em" style="font-size: 36px;" x="10" text-anchor="start">с корпорациями</text></g><g transform="
        rotate(50)
        translate(875,0)
      "><circle fill="#99a" r="5"></circle><text dy="0.25em" style="font-size: 36px;" x="10" text-anchor="start">со спонсорами</text></g><g transform="
        rotate(46.666666666666686)
        translate(875,0)
      "><circle fill="#99a" r="5"></circle><text dy="0.25em" style="font-size: 36px;" x="10" text-anchor="start">с меценатами</text></g><g transform="
        rotate(43.333333333333314)
        translate(875,0)
      "><circle fill="#99a" r="5"></circle><text dy="0.25em" style="font-size: 36px;" x="10" text-anchor="start">с корпорациями</text></g><g transform="
        rotate(36.66666666666666)
        translate(875,0)
      "><circle fill="#99a" r="5"></circle><text dy="0.25em" style="font-size: 36px;" x="10" text-anchor="start">со стартапами</text></g><g transform="
        rotate(33.33333333333334)
        translate(875,0)
      "><circle fill="#99a" r="5"></circle><text dy="0.25em" style="font-size: 36px;" x="10" text-anchor="start">с руководством Якутии</text></g><g transform="
        rotate(29.999999999999986)
        translate(875,0)
      "><circle fill="#99a" r="5"></circle><text dy="0.25em" style="font-size: 36px;" x="10" text-anchor="start">с арктическими территориями</text></g><g transform="
        rotate(23.333333333333343)
        translate(875,0)
      "><circle fill="#99a" r="5"></circle><text dy="0.25em" style="font-size: 36px;" x="10" text-anchor="start">реструктуризация туркластера</text></g><g transform="
        rotate(16.666666666666657)
        translate(875,0)
      "><circle fill="#99a" r="5"></circle><text dy="0.25em" style="font-size: 36px;" x="10" text-anchor="start">управление персоналом</text></g><g transform="
        rotate(13.333333333333343)
        translate(875,0)
      "><circle fill="#99a" r="5"></circle><text dy="0.25em" style="font-size: 36px;" x="10" text-anchor="start">операционный менеджмент</text></g><g transform="
        rotate(10)
        translate(875,0)
      "><circle fill="#99a" r="5"></circle><text dy="0.25em" style="font-size: 36px;" x="10" text-anchor="start">бюджетирование</text></g><g transform="
        rotate(3.333333333333343)
        translate(875,0)
      "><circle fill="#99a" r="5"></circle><text dy="0.25em" style="font-size: 36px;" x="10" text-anchor="start">научно-исследовательские резиденции Томтор</text></g><g transform="
        rotate(0)
        translate(875,0)
      "><circle fill="#99a" r="5"></circle><text dy="0.25em" style="font-size: 36px;" x="10" text-anchor="start">научно-исследовательские резиденции Теплый ключ</text></g><g transform="
        rotate(-6.666666666666671)
        translate(875,0)
      "><circle fill="#99a" r="5"></circle><text dy="0.25em" style="font-size: 36px;" x="10" text-anchor="start">тестирования инноваций в экстремальных условиях</text></g><g transform="
        rotate(-10)
        translate(875,0)
      "><circle fill="#99a" r="5"></circle><text dy="0.25em" style="font-size: 36px;" x="10" text-anchor="start">сотрудничество с научным сообществом</text></g><g transform="
        rotate(-13.333333333333329)
        translate(875,0)
      "><circle fill="#99a" r="5"></circle><text dy="0.25em" style="font-size: 36px;" x="10" text-anchor="start">реализация исследовательских проектов</text></g><g transform="
        rotate(-16.66666666666667)
        translate(875,0)
      "><circle fill="#99a" r="5"></circle><text dy="0.25em" style="font-size: 36px;" x="10" text-anchor="start">привлечение технологических стартапов</text></g><g transform="
        rotate(-20)
        translate(875,0)
      "><circle fill="#99a" r="5"></circle><text dy="0.25em" style="font-size: 36px;" x="10" text-anchor="start">привлечение технологических стартапов</text></g><g transform="
        rotate(-23.333333333333343)
        translate(875,0)
      "><circle fill="#99a" r="5"></circle><text dy="0.25em" style="font-size: 36px;" x="10" text-anchor="start">привлечение академических туров в поездки и резиденции</text></g><g transform="
        rotate(-26.66666666666667)
        translate(875,0)
      "><circle fill="#99a" r="5"></circle><text dy="0.25em" style="font-size: 36px;" x="10" text-anchor="start">подготовка и публикация научно-исследовательских работ</text></g><g transform="
        rotate(-30.000000000000007)
        translate(875,0)
      "><circle fill="#99a" r="5"></circle><text dy="0.25em" style="font-size: 36px;" x="10" text-anchor="start">открытие малых инновационных предприятий</text></g><g transform="
        rotate(-33.33333333333333)
        translate(875,0)
      "><circle fill="#99a" r="5"></circle><text dy="0.25em" style="font-size: 36px;" x="10" text-anchor="start">организация научно-исследовательских мероприятий</text></g><g transform="
        rotate(-36.66666666666667)
        translate(875,0)
      "><circle fill="#99a" r="5"></circle><text dy="0.25em" style="font-size: 36px;" x="10" text-anchor="start">информационное сопровождение департамента</text></g><g transform="
        rotate(-40)
        translate(875,0)
      "><circle fill="#99a" r="5"></circle><text dy="0.25em" style="font-size: 36px;" x="10" text-anchor="start">запуск исследовательских проектов</text></g><g transform="
        rotate(-46.666666666666664)
        translate(875,0)
      "><circle fill="#99a" r="5"></circle><text dy="0.25em" style="font-size: 36px;" x="10" text-anchor="start">управление образовательными проектами</text></g><g transform="
        rotate(-50)
        translate(875,0)
      "><circle fill="#99a" r="5"></circle><text dy="0.25em" style="font-size: 36px;" x="10" text-anchor="start">развитие волонтерских  программ</text></g><g transform="
        rotate(-56.66666666666667)
        translate(875,0)
      "><circle fill="#99a" r="5"></circle><text dy="0.25em" style="font-size: 36px;" x="10" text-anchor="start">организация временных выставок</text></g><g transform="
        rotate(-60)
        translate(875,0)
      "><circle fill="#99a" r="5"></circle><text dy="0.25em" style="font-size: 36px;" x="10" text-anchor="start">координация и развитие просветительских  программ</text></g><g transform="
        rotate(-66.66666666666666)
        translate(875,0)
      "><circle fill="#99a" r="5"></circle><text dy="0.25em" style="font-size: 36px;" x="10" text-anchor="start">управление визит-центрами</text></g><g transform="
        rotate(-70)
        translate(875,0)
      "><circle fill="#99a" r="5"></circle><text dy="0.25em" style="font-size: 36px;" x="10" text-anchor="start">социально-культурный центр в Оймякон</text></g><g transform="
        rotate(-73.33333333333334)
        translate(875,0)
      "><circle fill="#99a" r="5"></circle><text dy="0.25em" style="font-size: 36px;" x="10" text-anchor="start">разработка и исполнение событийной  программы</text></g><g transform="
        rotate(-76.66666666666667)
        translate(875,0)
      "><circle fill="#99a" r="5"></circle><text dy="0.25em" style="font-size: 36px;" x="10" text-anchor="start">размещение инфобоксов в аэропортах Якутска</text></g><g transform="
        rotate(-80)
        translate(875,0)
      "><circle fill="#99a" r="5"></circle><text dy="0.25em" style="font-size: 36px;" x="10" text-anchor="start">размещение инфобоксов в аэропортах Магадана</text></g><g transform="
        rotate(-83.33333333333333)
        translate(875,0)
      "><circle fill="#99a" r="5"></circle><text dy="0.25em" style="font-size: 36px;" x="10" text-anchor="start">музей краеведения «Полюс холода»</text></g><g transform="
        rotate(-86.66666666666667)
        translate(875,0)
      "><circle fill="#99a" r="5"></circle><text dy="0.25em" style="font-size: 36px;" x="10" text-anchor="start">гостевой центр в Теплом Ключе и Томторе</text></g><g transform="
        rotate(246.66666666666669)
        translate(350,0)
      "><text dy="0.25em" style="font-size: 36px;" x="10" text-anchor="start" transform="rotate(180)" stroke="white">авиа</text><circle fill="skyblue" r="5"></circle><text dy="0.25em" style="font-size: 36px;" x="10" text-anchor="start" transform="rotate(180)">авиа</text></g><g transform="
        rotate(223.8888888888889)
        translate(525,0)
      "><text dy="0.25em" style="font-size: 36px;" x="10" text-anchor="start" transform="rotate(180)" stroke="white">наземное</text><circle fill="skyblue" r="5"></circle><text dy="0.25em" style="font-size: 36px;" x="10" text-anchor="start" transform="rotate(180)">наземное</text></g><g transform="
        rotate(200.00000000000006)
        translate(525,0)
      "><text dy="0.25em" style="font-size: 36px;" x="10" text-anchor="start" transform="rotate(180)" stroke="white">инфрастуктура</text><circle fill="skyblue" r="5"></circle><text dy="0.25em" style="font-size: 36px;" x="10" text-anchor="start" transform="rotate(180)">инфрастуктура</text></g><g transform="
        rotate(180.55555555555554)
        translate(525,0)
      "><text dy="0.25em" style="font-size: 36px;" x="10" text-anchor="start" transform="rotate(180)" stroke="white">жилье</text><circle fill="skyblue" r="5"></circle><text dy="0.25em" style="font-size: 36px;" x="10" text-anchor="start" transform="rotate(180)">жилье</text></g><g transform="
        rotate(148.88888888888894)
        translate(525,0)
      "><text dy="0.25em" style="font-size: 36px;" x="10" text-anchor="start" transform="rotate(180)" stroke="white">I</text><circle fill="skyblue" r="5"></circle><text dy="0.25em" style="font-size: 36px;" x="10" text-anchor="start" transform="rotate(180)">I</text></g><g transform="
        rotate(125.55555555555551)
        translate(525,0)
      "><text dy="0.25em" style="font-size: 36px;" x="10" text-anchor="start" transform="rotate(180)" stroke="white">I</text><circle fill="skyblue" r="5"></circle><text dy="0.25em" style="font-size: 36px;" x="10" text-anchor="start" transform="rotate(180)">I</text></g><g transform="
        rotate(111.66666666666669)
        translate(700,0)
      "><text dy="0.25em" style="font-size: 36px;" x="10" text-anchor="start" transform="rotate(180)" stroke="white">III</text><circle fill="skyblue" r="5"></circle><text dy="0.25em" style="font-size: 36px;" x="10" text-anchor="start" transform="rotate(180)">III</text></g><g transform="
        rotate(101.66666666666669)
        translate(700,0)
      "><text dy="0.25em" style="font-size: 36px;" x="10" text-anchor="start" transform="rotate(180)" stroke="white">II</text><circle fill="skyblue" r="5"></circle><text dy="0.25em" style="font-size: 36px;" x="10" text-anchor="start" transform="rotate(180)">II</text></g><g transform="
        rotate(90)
        translate(700,0)
      "><text dy="0.25em" style="font-size: 36px;" x="10" text-anchor="start" transform="rotate(180)" stroke="white">II</text><circle fill="skyblue" r="5"></circle><text dy="0.25em" style="font-size: 36px;" x="10" text-anchor="start" transform="rotate(180)">II</text></g><g transform="
        rotate(71.66666666666666)
        translate(700,0)
      "><text dy="0.25em" style="font-size: 36px;" x="-10" text-anchor="end" stroke="white">I</text><circle fill="skyblue" r="5"></circle><text dy="0.25em" style="font-size: 36px;" x="-10" text-anchor="end">I</text></g><g transform="
        rotate(56.66666666666666)
        translate(700,0)
      "><text dy="0.25em" style="font-size: 36px;" x="-10" text-anchor="end" stroke="white">III</text><circle fill="skyblue" r="5"></circle><text dy="0.25em" style="font-size: 36px;" x="-10" text-anchor="end">III</text></g><g transform="
        rotate(46.666666666666686)
        translate(700,0)
      "><text dy="0.25em" style="font-size: 36px;" x="-10" text-anchor="end" stroke="white">II</text><circle fill="skyblue" r="5"></circle><text dy="0.25em" style="font-size: 36px;" x="-10" text-anchor="end">II</text></g><g transform="
        rotate(33.33333333333334)
        translate(700,0)
      "><text dy="0.25em" style="font-size: 36px;" x="-10" text-anchor="end" stroke="white">I</text><circle fill="skyblue" r="5"></circle><text dy="0.25em" style="font-size: 36px;" x="-10" text-anchor="end">I</text></g><g transform="
        rotate(23.333333333333343)
        translate(700,0)
      "><text dy="0.25em" style="font-size: 36px;" x="-10" text-anchor="end" stroke="white">III</text><circle fill="skyblue" r="5"></circle><text dy="0.25em" style="font-size: 36px;" x="-10" text-anchor="end">III</text></g><g transform="
        rotate(13.333333333333343)
        translate(700,0)
      "><text dy="0.25em" style="font-size: 36px;" x="-10" text-anchor="end" stroke="white">I</text><circle fill="skyblue" r="5"></circle><text dy="0.25em" style="font-size: 36px;" x="-10" text-anchor="end">I</text></g><g transform="
        rotate(1.6666666666666714)
        translate(700,0)
      "><text dy="0.25em" style="font-size: 36px;" x="-10" text-anchor="end" stroke="white">III</text><circle fill="skyblue" r="5"></circle><text dy="0.25em" style="font-size: 36px;" x="-10" text-anchor="end">III</text></g><g transform="
        rotate(-23.333333333333343)
        translate(700,0)
      "><text dy="0.25em" style="font-size: 36px;" x="-10" text-anchor="end" stroke="white">II</text><circle fill="skyblue" r="5"></circle><text dy="0.25em" style="font-size: 36px;" x="-10" text-anchor="end">II</text></g><g transform="
        rotate(-48.333333333333336)
        translate(700,0)
      "><text dy="0.25em" style="font-size: 36px;" x="-10" text-anchor="end" stroke="white">III</text><circle fill="skyblue" r="5"></circle><text dy="0.25em" style="font-size: 36px;" x="-10" text-anchor="end">III</text></g><g transform="
        rotate(-58.333333333333336)
        translate(700,0)
      "><text dy="0.25em" style="font-size: 36px;" x="-10" text-anchor="end" stroke="white">II</text><circle fill="skyblue" r="5"></circle><text dy="0.25em" style="font-size: 36px;" x="-10" text-anchor="end">II</text></g><g transform="
        rotate(-76.66666666666667)
        translate(700,0)
      "><text dy="0.25em" style="font-size: 36px;" x="-10" text-anchor="end" stroke="white">I</text><circle fill="skyblue" r="5"></circle><text dy="0.25em" style="font-size: 36px;" x="-10" text-anchor="end">I</text></g><g transform="
        rotate(235.27777777777777)
        translate(174.99999999999997,0)
      "><text dy="0.25em" style="font-size: 36px;" x="10" text-anchor="start" transform="rotate(180)" stroke="white">транспорт</text><circle fill="skyblue" r="5"></circle><text dy="0.25em" style="font-size: 36px;" x="10" text-anchor="start" transform="rotate(180)">транспорт</text></g><g transform="
        rotate(176.48148148148147)
        translate(350,0)
      "><text dy="0.25em" style="font-size: 36px;" x="10" text-anchor="start" transform="rotate(180)" stroke="white">территория</text><circle fill="skyblue" r="5"></circle><text dy="0.25em" style="font-size: 36px;" x="10" text-anchor="start" transform="rotate(180)">территория</text></g><g transform="
        rotate(112.96296296296296)
        translate(350,0)
      "><text dy="0.25em" style="font-size: 36px;" x="10" text-anchor="start" transform="rotate(180)" stroke="white">охрана среды</text><circle fill="skyblue" r="5"></circle><text dy="0.25em" style="font-size: 36px;" x="10" text-anchor="start" transform="rotate(180)">охрана среды</text></g><g transform="
        rotate(80.83333333333331)
        translate(525,0)
      "><text dy="0.25em" style="font-size: 36px;" x="-10" text-anchor="end" stroke="white">работа с туристами</text><circle fill="skyblue" r="5"></circle><text dy="0.25em" style="font-size: 36px;" x="-10" text-anchor="end">работа с туристами</text></g><g transform="
        rotate(45.55555555555554)
        translate(525,0)
      "><text dy="0.25em" style="font-size: 36px;" x="-10" text-anchor="end" stroke="white">партнерство</text><circle fill="skyblue" r="5"></circle><text dy="0.25em" style="font-size: 36px;" x="-10" text-anchor="end">партнерство</text></g><g transform="
        rotate(18.33333333333333)
        translate(525,0)
      "><text dy="0.25em" style="font-size: 36px;" x="-10" text-anchor="end" stroke="white">менеджмент</text><circle fill="skyblue" r="5"></circle><text dy="0.25em" style="font-size: 36px;" x="-10" text-anchor="end">менеджмент</text></g><g transform="
        rotate(-10.833333333333329)
        translate(525,0)
      "><text dy="0.25em" style="font-size: 36px;" x="-10" text-anchor="end" stroke="white">исследования</text><circle fill="skyblue" r="5"></circle><text dy="0.25em" style="font-size: 36px;" x="-10" text-anchor="end">исследования</text></g><g transform="
        rotate(-61.11111111111111)
        translate(525,0)
      "><text dy="0.25em" style="font-size: 36px;" x="-10" text-anchor="end" stroke="white">инфоцентры и образование</text><circle fill="skyblue" r="5"></circle><text dy="0.25em" style="font-size: 36px;" x="-10" text-anchor="end">инфоцентры и образование</text></g><g transform="
        rotate(74.6875)
        translate(0,0)
      "><text dy="0.25em" style="font-size: 36px;" x="-10" text-anchor="end" stroke="white"></text><circle fill="skyblue" r="5"></circle><text dy="0.25em" style="font-size: 36px;" x="-10" text-anchor="end"></text></g></g></svg>