<svg xmlns="http://www.w3.org/2000/svg" role="img" width="919" height="826"><rect width="919" height="826" fill="transparent"></rect><g transform="translate(50,50)"><g><linearGradient id="root0.root1" spreadMethod="pad" x1="0%" x2="0%" y1="0%" y2="100%"><stop offset="0%" stop-color="#1f77b4"></stop><stop offset="100%" stop-color="#ff7f0e"></stop></linearGradient><path fill="url(#root0.root1)" d="M654.8608093949777,18C654.8608093949777,26.72,654.8608093949777,35.44,654.8608093949777,44.16C654.8608093949777,99.38666666666666,656.9425137519333,154.61333333333334,656.9425137519333,209.84C656.9425137519333,218.56,656.9425137519333,227.28,656.9425137519333,236C656.9425137519333,236,80.53626375193335,236,80.53626375193335,236C80.53626375193335,227.28,80.53626375193335,218.56,80.53626375193335,209.84C80.53626375193335,154.61333333333334,78.45455939497771,99.38666666666666,78.45455939497771,44.16C78.45455939497771,35.44,78.45455939497771,26.72,78.45455939497771,18C78.45455939497771,18,654.8608093949777,18,654.8608093949777,18Z" fill-opacity="0.5" style="mix-blend-mode: multiply;"></path><linearGradient id="root1.d1" spreadMethod="pad" x1="0%" x2="0%" y1="0%" y2="100%"><stop offset="0%" stop-color="#ff7f0e"></stop><stop offset="100%" stop-color="#d62728"></stop></linearGradient><path fill="url(#root1.d1)" d="M136.31751375193335,254C136.31751375193335,262.72,136.31751375193335,271.44,136.31751375193335,280.16C136.31751375193335,335.38666666666666,125.23385596081037,390.61333333333334,125.23385596081037,445.84C125.23385596081037,454.56,125.23385596081037,463.28,125.23385596081037,472C125.23385596081037,472,69.45260596081037,472,69.45260596081037,472C69.45260596081037,463.28,69.45260596081037,454.56,69.45260596081037,445.84C69.45260596081037,390.61333333333334,80.53626375193336,335.38666666666666,80.53626375193336,280.16C80.53626375193336,271.44,80.53626375193336,262.72,80.53626375193336,254C80.53626375193336,254,136.31751375193335,254,136.31751375193335,254Z" fill-opacity="0.5" style="mix-blend-mode: multiply;"></path><linearGradient id="d1.d11" spreadMethod="pad" x1="0%" x2="0%" y1="0%" y2="100%"><stop offset="0%" stop-color="#d62728"></stop><stop offset="100%" stop-color="#17becf"></stop></linearGradient><path fill="url(#d1.d11)" d="M88.04635596081037,490C88.04635596081037,498.71999999999997,88.04635596081037,507.44,88.04635596081037,516.16C88.04635596081037,571.3866666666667,41.1875000000004,626.6133333333333,41.1875000000004,681.84C41.1875000000004,690.5600000000001,41.1875000000004,699.28,41.1875000000004,708C41.1875000000004,708,22.593750000000398,708,22.593750000000398,708C22.593750000000398,699.28,22.593750000000398,690.5600000000001,22.593750000000398,681.84C22.593750000000398,626.6133333333333,69.45260596081037,571.3866666666667,69.45260596081037,516.16C69.45260596081037,507.44,69.45260596081037,498.71999999999997,69.45260596081037,490C69.45260596081037,490,88.04635596081037,490,88.04635596081037,490Z" fill-opacity="0.5" style="mix-blend-mode: multiply;"></path><linearGradient id="d1.d12" spreadMethod="pad" x1="0%" x2="0%" y1="0%" y2="100%"><stop offset="0%" stop-color="#d62728"></stop><stop offset="100%" stop-color="#1f77b4"></stop></linearGradient><path fill="url(#d1.d12)" d="M106.64010596081037,490C106.64010596081037,498.71999999999997,106.64010596081037,507.44,106.64010596081037,516.16C106.64010596081037,571.3866666666667,63.78125000000037,626.6133333333333,63.78125000000037,681.84C63.78125000000037,690.5600000000001,63.78125000000037,699.28,63.78125000000037,708C63.78125000000037,708,45.18750000000037,708,45.18750000000037,708C45.18750000000037,699.28,45.18750000000037,690.5600000000001,45.18750000000037,681.84C45.18750000000037,626.6133333333333,88.04635596081037,571.3866666666667,88.04635596081037,516.16C88.04635596081037,507.44,88.04635596081037,498.71999999999997,88.04635596081037,490C88.04635596081037,490,106.64010596081037,490,106.64010596081037,490Z" fill-opacity="0.5" style="mix-blend-mode: multiply;"></path><linearGradient id="d1.d13" spreadMethod="pad" x1="0%" x2="0%" y1="0%" y2="100%"><stop offset="0%" stop-color="#d62728"></stop><stop offset="100%" stop-color="#ff7f0e"></stop></linearGradient><path fill="url(#d1.d13)" d="M125.23385596081037,490C125.23385596081037,498.71999999999997,125.23385596081037,507.44,125.23385596081037,516.16C125.23385596081037,571.3866666666667,86.37500000000037,626.6133333333333,86.37500000000037,681.84C86.37500000000037,690.5600000000001,86.37500000000037,699.28,86.37500000000037,708C86.37500000000037,708,67.78125000000037,708,67.78125000000037,708C67.78125000000037,699.28,67.78125000000037,690.5600000000001,67.78125000000037,681.84C67.78125000000037,626.6133333333333,106.64010596081037,571.3866666666667,106.64010596081037,516.16C106.64010596081037,507.44,106.64010596081037,498.71999999999997,106.64010596081037,490C106.64010596081037,490,125.23385596081037,490,125.23385596081037,490Z" fill-opacity="0.5" style="mix-blend-mode: multiply;"></path><linearGradient id="root1.d2" spreadMethod="pad" x1="0%" x2="0%" y1="0%" y2="100%"><stop offset="0%" stop-color="#ff7f0e"></stop><stop offset="100%" stop-color="#9467bd"></stop></linearGradient><path fill="url(#root1.d2)" d="M266.47376375193335,254C266.47376375193335,262.72,266.47376375193335,271.44,266.47376375193335,280.16C266.47376375193335,335.38666666666666,259.8506645105462,390.61333333333334,259.8506645105462,445.84C259.8506645105462,454.56,259.8506645105462,463.28,259.8506645105462,472C259.8506645105462,472,129.6944145105462,472,129.6944145105462,472C129.6944145105462,463.28,129.6944145105462,454.56,129.6944145105462,445.84C129.6944145105462,390.61333333333334,136.31751375193335,335.38666666666666,136.31751375193335,280.16C136.31751375193335,271.44,136.31751375193335,262.72,136.31751375193335,254C136.31751375193335,254,266.47376375193335,254,266.47376375193335,254Z" fill-opacity="0.5" style="mix-blend-mode: multiply;"></path><linearGradient id="d2.d21" spreadMethod="pad" x1="0%" x2="0%" y1="0%" y2="100%"><stop offset="0%" stop-color="#9467bd"></stop><stop offset="100%" stop-color="#2ca02c"></stop></linearGradient><path fill="url(#d2.d21)" d="M148.2881645105462,490C148.2881645105462,498.71999999999997,148.2881645105462,507.44,148.2881645105462,516.16C148.2881645105462,571.3866666666667,108.96875000000037,626.6133333333333,108.96875000000037,681.84C108.96875000000037,690.5600000000001,108.96875000000037,699.28,108.96875000000037,708C108.96875000000037,708,90.37500000000037,708,90.37500000000037,708C90.37500000000037,699.28,90.37500000000037,690.5600000000001,90.37500000000037,681.84C90.37500000000037,626.6133333333333,129.6944145105462,571.3866666666667,129.6944145105462,516.16C129.6944145105462,507.44,129.6944145105462,498.71999999999997,129.6944145105462,490C129.6944145105462,490,148.2881645105462,490,148.2881645105462,490Z" fill-opacity="0.5" style="mix-blend-mode: multiply;"></path><linearGradient id="d2.d22" spreadMethod="pad" x1="0%" x2="0%" y1="0%" y2="100%"><stop offset="0%" stop-color="#9467bd"></stop><stop offset="100%" stop-color="#d62728"></stop></linearGradient><path fill="url(#d2.d22)" d="M166.8819145105462,490C166.8819145105462,498.71999999999997,166.8819145105462,507.44,166.8819145105462,516.16C166.8819145105462,571.3866666666667,131.56250000000034,626.6133333333333,131.56250000000034,681.84C131.56250000000034,690.5600000000001,131.56250000000034,699.28,131.56250000000034,708C131.56250000000034,708,112.96875000000034,708,112.96875000000034,708C112.96875000000034,699.28,112.96875000000034,690.5600000000001,112.96875000000034,681.84C112.96875000000034,626.6133333333333,148.2881645105462,571.3866666666667,148.2881645105462,516.16C148.2881645105462,507.44,148.2881645105462,498.71999999999997,148.2881645105462,490C148.2881645105462,490,166.8819145105462,490,166.8819145105462,490Z" fill-opacity="0.5" style="mix-blend-mode: multiply;"></path><linearGradient id="d2.d23" spreadMethod="pad" x1="0%" x2="0%" y1="0%" y2="100%"><stop offset="0%" stop-color="#9467bd"></stop><stop offset="100%" stop-color="#9467bd"></stop></linearGradient><path fill="url(#d2.d23)" d="M185.4756645105462,490C185.4756645105462,498.71999999999997,185.4756645105462,507.44,185.4756645105462,516.16C185.4756645105462,571.3866666666667,154.15625000000034,626.6133333333333,154.15625000000034,681.84C154.15625000000034,690.5600000000001,154.15625000000034,699.28,154.15625000000034,708C154.15625000000034,708,135.56250000000034,708,135.56250000000034,708C135.56250000000034,699.28,135.56250000000034,690.5600000000001,135.56250000000034,681.84C135.56250000000034,626.6133333333333,166.8819145105462,571.3866666666667,166.8819145105462,516.16C166.8819145105462,507.44,166.8819145105462,498.71999999999997,166.8819145105462,490C166.8819145105462,490,185.4756645105462,490,185.4756645105462,490Z" fill-opacity="0.5" style="mix-blend-mode: multiply;"></path><linearGradient id="d2.d24" spreadMethod="pad" x1="0%" x2="0%" y1="0%" y2="100%"><stop offset="0%" stop-color="#9467bd"></stop><stop offset="100%" stop-color="#8c564b"></stop></linearGradient><path fill="url(#d2.d24)" d="M204.0694145105462,490C204.0694145105462,498.71999999999997,204.0694145105462,507.44,204.0694145105462,516.16C204.0694145105462,571.3866666666667,176.75000000000034,626.6133333333333,176.75000000000034,681.84C176.75000000000034,690.5600000000001,176.75000000000034,699.28,176.75000000000034,708C176.75000000000034,708,158.15625000000034,708,158.15625000000034,708C158.15625000000034,699.28,158.15625000000034,690.5600000000001,158.15625000000034,681.84C158.15625000000034,626.6133333333333,185.4756645105462,571.3866666666667,185.4756645105462,516.16C185.4756645105462,507.44,185.4756645105462,498.71999999999997,185.4756645105462,490C185.4756645105462,490,204.0694145105462,490,204.0694145105462,490Z" fill-opacity="0.5" style="mix-blend-mode: multiply;"></path><linearGradient id="d2.d25" spreadMethod="pad" x1="0%" x2="0%" y1="0%" y2="100%"><stop offset="0%" stop-color="#9467bd"></stop><stop offset="100%" stop-color="#e377c2"></stop></linearGradient><path fill="url(#d2.d25)" d="M222.6631645105462,490C222.6631645105462,498.71999999999997,222.6631645105462,507.44,222.6631645105462,516.16C222.6631645105462,571.3866666666667,199.34375000000034,626.6133333333333,199.34375000000034,681.84C199.34375000000034,690.5600000000001,199.34375000000034,699.28,199.34375000000034,708C199.34375000000034,708,180.75000000000034,708,180.75000000000034,708C180.75000000000034,699.28,180.75000000000034,690.5600000000001,180.75000000000034,681.84C180.75000000000034,626.6133333333333,204.0694145105462,571.3866666666667,204.0694145105462,516.16C204.0694145105462,507.44,204.0694145105462,498.71999999999997,204.0694145105462,490C204.0694145105462,490,222.6631645105462,490,222.6631645105462,490Z" fill-opacity="0.5" style="mix-blend-mode: multiply;"></path><linearGradient id="d2.d26" spreadMethod="pad" x1="0%" x2="0%" y1="0%" y2="100%"><stop offset="0%" stop-color="#9467bd"></stop><stop offset="100%" stop-color="#7f7f7f"></stop></linearGradient><path fill="url(#d2.d26)" d="M241.2569145105462,490C241.2569145105462,498.71999999999997,241.2569145105462,507.44,241.2569145105462,516.16C241.2569145105462,571.3866666666667,221.93750000000034,626.6133333333333,221.93750000000034,681.84C221.93750000000034,690.5600000000001,221.93750000000034,699.28,221.93750000000034,708C221.93750000000034,708,203.34375000000034,708,203.34375000000034,708C203.34375000000034,699.28,203.34375000000034,690.5600000000001,203.34375000000034,681.84C203.34375000000034,626.6133333333333,222.6631645105462,571.3866666666667,222.6631645105462,516.16C222.6631645105462,507.44,222.6631645105462,498.71999999999997,222.6631645105462,490C222.6631645105462,490,241.2569145105462,490,241.2569145105462,490Z" fill-opacity="0.5" style="mix-blend-mode: multiply;"></path><linearGradient id="d2.d27" spreadMethod="pad" x1="0%" x2="0%" y1="0%" y2="100%"><stop offset="0%" stop-color="#9467bd"></stop><stop offset="100%" stop-color="#bcbd22"></stop></linearGradient><path fill="url(#d2.d27)" d="M259.8506645105462,490C259.8506645105462,498.71999999999997,259.8506645105462,507.44,259.8506645105462,516.16C259.8506645105462,571.3866666666667,244.53125000000034,626.6133333333333,244.53125000000034,681.84C244.53125000000034,690.5600000000001,244.53125000000034,699.28,244.53125000000034,708C244.53125000000034,708,225.93750000000034,708,225.93750000000034,708C225.93750000000034,699.28,225.93750000000034,690.5600000000001,225.93750000000034,681.84C225.93750000000034,626.6133333333333,241.2569145105462,571.3866666666667,241.2569145105462,516.16C241.2569145105462,507.44,241.2569145105462,498.71999999999997,241.2569145105462,490C241.2569145105462,490,259.8506645105462,490,259.8506645105462,490Z" fill-opacity="0.5" style="mix-blend-mode: multiply;"></path><linearGradient id="root1.d3" spreadMethod="pad" x1="0%" x2="0%" y1="0%" y2="100%"><stop offset="0%" stop-color="#ff7f0e"></stop><stop offset="100%" stop-color="#8c564b"></stop></linearGradient><path fill="url(#root1.d3)" d="M378.03626375193335,254C378.03626375193335,262.72,378.03626375193335,271.44,378.03626375193335,280.16C378.03626375193335,335.38666666666666,375.99804785405496,390.61333333333334,375.99804785405496,445.84C375.99804785405496,454.56,375.99804785405496,463.28,375.99804785405496,472C375.99804785405496,472,264.43554785405496,472,264.43554785405496,472C264.43554785405496,463.28,264.43554785405496,454.56,264.43554785405496,445.84C264.43554785405496,390.61333333333334,266.47376375193335,335.38666666666666,266.47376375193335,280.16C266.47376375193335,271.44,266.47376375193335,262.72,266.47376375193335,254C266.47376375193335,254,378.03626375193335,254,378.03626375193335,254Z" fill-opacity="0.5" style="mix-blend-mode: multiply;"></path><linearGradient id="d3.d31" spreadMethod="pad" x1="0%" x2="0%" y1="0%" y2="100%"><stop offset="0%" stop-color="#8c564b"></stop><stop offset="100%" stop-color="#17becf"></stop></linearGradient><path fill="url(#d3.d31)" d="M283.02929785405496,490C283.02929785405496,498.71999999999997,283.02929785405496,507.44,283.02929785405496,516.16C283.02929785405496,571.3866666666667,267.1250000000004,626.6133333333333,267.1250000000004,681.84C267.1250000000004,690.5600000000001,267.1250000000004,699.28,267.1250000000004,708C267.1250000000004,708,248.5312500000004,708,248.5312500000004,708C248.5312500000004,699.28,248.5312500000004,690.5600000000001,248.5312500000004,681.84C248.5312500000004,626.6133333333333,264.43554785405496,571.3866666666667,264.43554785405496,516.16C264.43554785405496,507.44,264.43554785405496,498.71999999999997,264.43554785405496,490C264.43554785405496,490,283.02929785405496,490,283.02929785405496,490Z" fill-opacity="0.5" style="mix-blend-mode: multiply;"></path><linearGradient id="d3.d32" spreadMethod="pad" x1="0%" x2="0%" y1="0%" y2="100%"><stop offset="0%" stop-color="#8c564b"></stop><stop offset="100%" stop-color="#1f77b4"></stop></linearGradient><path fill="url(#d3.d32)" d="M301.62304785405496,490C301.62304785405496,498.71999999999997,301.62304785405496,507.44,301.62304785405496,516.16C301.62304785405496,571.3866666666667,289.7187500000003,626.6133333333333,289.7187500000003,681.84C289.7187500000003,690.5600000000001,289.7187500000003,699.28,289.7187500000003,708C289.7187500000003,708,271.1250000000003,708,271.1250000000003,708C271.1250000000003,699.28,271.1250000000003,690.5600000000001,271.1250000000003,681.84C271.1250000000003,626.6133333333333,283.02929785405496,571.3866666666667,283.02929785405496,516.16C283.02929785405496,507.44,283.02929785405496,498.71999999999997,283.02929785405496,490C283.02929785405496,490,301.62304785405496,490,301.62304785405496,490Z" fill-opacity="0.5" style="mix-blend-mode: multiply;"></path><linearGradient id="d3.d33" spreadMethod="pad" x1="0%" x2="0%" y1="0%" y2="100%"><stop offset="0%" stop-color="#8c564b"></stop><stop offset="100%" stop-color="#ff7f0e"></stop></linearGradient><path fill="url(#d3.d33)" d="M320.21679785405496,490C320.21679785405496,498.71999999999997,320.21679785405496,507.44,320.21679785405496,516.16C320.21679785405496,571.3866666666667,312.3125000000003,626.6133333333333,312.3125000000003,681.84C312.3125000000003,690.5600000000001,312.3125000000003,699.28,312.3125000000003,708C312.3125000000003,708,293.7187500000003,708,293.7187500000003,708C293.7187500000003,699.28,293.7187500000003,690.5600000000001,293.7187500000003,681.84C293.7187500000003,626.6133333333333,301.62304785405496,571.3866666666667,301.62304785405496,516.16C301.62304785405496,507.44,301.62304785405496,498.71999999999997,301.62304785405496,490C301.62304785405496,490,320.21679785405496,490,320.21679785405496,490Z" fill-opacity="0.5" style="mix-blend-mode: multiply;"></path><linearGradient id="d3.d34" spreadMethod="pad" x1="0%" x2="0%" y1="0%" y2="100%"><stop offset="0%" stop-color="#8c564b"></stop><stop offset="100%" stop-color="#2ca02c"></stop></linearGradient><path fill="url(#d3.d34)" d="M338.81054785405496,490C338.81054785405496,498.71999999999997,338.81054785405496,507.44,338.81054785405496,516.16C338.81054785405496,571.3866666666667,334.9062500000003,626.6133333333333,334.9062500000003,681.84C334.9062500000003,690.5600000000001,334.9062500000003,699.28,334.9062500000003,708C334.9062500000003,708,316.3125000000003,708,316.3125000000003,708C316.3125000000003,699.28,316.3125000000003,690.5600000000001,316.3125000000003,681.84C316.3125000000003,626.6133333333333,320.21679785405496,571.3866666666667,320.21679785405496,516.16C320.21679785405496,507.44,320.21679785405496,498.71999999999997,320.21679785405496,490C320.21679785405496,490,338.81054785405496,490,338.81054785405496,490Z" fill-opacity="0.5" style="mix-blend-mode: multiply;"></path><linearGradient id="d3.d35" spreadMethod="pad" x1="0%" x2="0%" y1="0%" y2="100%"><stop offset="0%" stop-color="#8c564b"></stop><stop offset="100%" stop-color="#d62728"></stop></linearGradient><path fill="url(#d3.d35)" d="M357.40429785405496,490C357.40429785405496,498.71999999999997,357.40429785405496,507.44,357.40429785405496,516.16C357.40429785405496,571.3866666666667,357.5000000000003,626.6133333333333,357.5000000000003,681.84C357.5000000000003,690.5600000000001,357.5000000000003,699.28,357.5000000000003,708C357.5000000000003,708,338.9062500000003,708,338.9062500000003,708C338.9062500000003,699.28,338.9062500000003,690.5600000000001,338.9062500000003,681.84C338.9062500000003,626.6133333333333,338.81054785405496,571.3866666666667,338.81054785405496,516.16C338.81054785405496,507.44,338.81054785405496,498.71999999999997,338.81054785405496,490C338.81054785405496,490,357.40429785405496,490,357.40429785405496,490Z" fill-opacity="0.5" style="mix-blend-mode: multiply;"></path><linearGradient id="d3.d36" spreadMethod="pad" x1="0%" x2="0%" y1="0%" y2="100%"><stop offset="0%" stop-color="#8c564b"></stop><stop offset="100%" stop-color="#9467bd"></stop></linearGradient><path fill="url(#d3.d36)" d="M375.99804785405496,490C375.99804785405496,498.71999999999997,375.99804785405496,507.44,375.99804785405496,516.16C375.99804785405496,571.3866666666667,380.0937500000003,626.6133333333333,380.0937500000003,681.84C380.0937500000003,690.5600000000001,380.0937500000003,699.28,380.0937500000003,708C380.0937500000003,708,361.5000000000003,708,361.5000000000003,708C361.5000000000003,699.28,361.5000000000003,690.5600000000001,361.5000000000003,681.84C361.5000000000003,626.6133333333333,357.40429785405496,571.3866666666667,357.40429785405496,516.16C357.40429785405496,507.44,357.40429785405496,498.71999999999997,357.40429785405496,490C357.40429785405496,490,375.99804785405496,490,375.99804785405496,490Z" fill-opacity="0.5" style="mix-blend-mode: multiply;"></path><linearGradient id="root1.d4" spreadMethod="pad" x1="0%" x2="0%" y1="0%" y2="100%"><stop offset="0%" stop-color="#ff7f0e"></stop><stop offset="100%" stop-color="#e377c2"></stop></linearGradient><path fill="url(#root1.d4)" d="M452.41126375193335,254C452.41126375193335,262.72,452.41126375193335,271.44,452.41126375193335,280.16C452.41126375193335,335.38666666666666,454.7486041535735,390.61333333333334,454.7486041535735,445.84C454.7486041535735,454.56,454.7486041535735,463.28,454.7486041535735,472C454.7486041535735,472,380.3736041535735,472,380.3736041535735,472C380.3736041535735,463.28,380.3736041535735,454.56,380.3736041535735,445.84C380.3736041535735,390.61333333333334,378.03626375193335,335.38666666666666,378.03626375193335,280.16C378.03626375193335,271.44,378.03626375193335,262.72,378.03626375193335,254C378.03626375193335,254,452.41126375193335,254,452.41126375193335,254Z" fill-opacity="0.5" style="mix-blend-mode: multiply;"></path><linearGradient id="d4.d41" spreadMethod="pad" x1="0%" x2="0%" y1="0%" y2="100%"><stop offset="0%" stop-color="#e377c2"></stop><stop offset="100%" stop-color="#8c564b"></stop></linearGradient><path fill="url(#d4.d41)" d="M398.9673541535735,490C398.9673541535735,498.71999999999997,398.9673541535735,507.44,398.9673541535735,516.16C398.9673541535735,571.3866666666667,402.6875000000003,626.6133333333333,402.6875000000003,681.84C402.6875000000003,690.5600000000001,402.6875000000003,699.28,402.6875000000003,708C402.6875000000003,708,384.0937500000003,708,384.0937500000003,708C384.0937500000003,699.28,384.0937500000003,690.5600000000001,384.0937500000003,681.84C384.0937500000003,626.6133333333333,380.3736041535735,571.3866666666667,380.3736041535735,516.16C380.3736041535735,507.44,380.3736041535735,498.71999999999997,380.3736041535735,490C380.3736041535735,490,398.9673541535735,490,398.9673541535735,490Z" fill-opacity="0.5" style="mix-blend-mode: multiply;"></path><linearGradient id="d4.d42" spreadMethod="pad" x1="0%" x2="0%" y1="0%" y2="100%"><stop offset="0%" stop-color="#e377c2"></stop><stop offset="100%" stop-color="#e377c2"></stop></linearGradient><path fill="url(#d4.d42)" d="M417.5611041535735,490C417.5611041535735,498.71999999999997,417.5611041535735,507.44,417.5611041535735,516.16C417.5611041535735,571.3866666666667,425.2812500000003,626.6133333333333,425.2812500000003,681.84C425.2812500000003,690.5600000000001,425.2812500000003,699.28,425.2812500000003,708C425.2812500000003,708,406.6875000000003,708,406.6875000000003,708C406.6875000000003,699.28,406.6875000000003,690.5600000000001,406.6875000000003,681.84C406.6875000000003,626.6133333333333,398.9673541535735,571.3866666666667,398.9673541535735,516.16C398.9673541535735,507.44,398.9673541535735,498.71999999999997,398.9673541535735,490C398.9673541535735,490,417.5611041535735,490,417.5611041535735,490Z" fill-opacity="0.5" style="mix-blend-mode: multiply;"></path><linearGradient id="d4.d43" spreadMethod="pad" x1="0%" x2="0%" y1="0%" y2="100%"><stop offset="0%" stop-color="#e377c2"></stop><stop offset="100%" stop-color="#7f7f7f"></stop></linearGradient><path fill="url(#d4.d43)" d="M436.1548541535735,490C436.1548541535735,498.71999999999997,436.1548541535735,507.44,436.1548541535735,516.16C436.1548541535735,571.3866666666667,447.8750000000003,626.6133333333333,447.8750000000003,681.84C447.8750000000003,690.5600000000001,447.8750000000003,699.28,447.8750000000003,708C447.8750000000003,708,429.2812500000003,708,429.2812500000003,708C429.2812500000003,699.28,429.2812500000003,690.5600000000001,429.2812500000003,681.84C429.2812500000003,626.6133333333333,417.5611041535735,571.3866666666667,417.5611041535735,516.16C417.5611041535735,507.44,417.5611041535735,498.71999999999997,417.5611041535735,490C417.5611041535735,490,436.1548541535735,490,436.1548541535735,490Z" fill-opacity="0.5" style="mix-blend-mode: multiply;"></path><linearGradient id="d4.d44" spreadMethod="pad" x1="0%" x2="0%" y1="0%" y2="100%"><stop offset="0%" stop-color="#e377c2"></stop><stop offset="100%" stop-color="#bcbd22"></stop></linearGradient><path fill="url(#d4.d44)" d="M454.7486041535735,490C454.7486041535735,498.71999999999997,454.7486041535735,507.44,454.7486041535735,516.16C454.7486041535735,571.3866666666667,470.4687500000003,626.6133333333333,470.4687500000003,681.84C470.4687500000003,690.5600000000001,470.4687500000003,699.28,470.4687500000003,708C470.4687500000003,708,451.8750000000003,708,451.8750000000003,708C451.8750000000003,699.28,451.8750000000003,690.5600000000001,451.8750000000003,681.84C451.8750000000003,626.6133333333333,436.1548541535735,571.3866666666667,436.1548541535735,516.16C436.1548541535735,507.44,436.1548541535735,498.71999999999997,436.1548541535735,490C436.1548541535735,490,454.7486041535735,490,454.7486041535735,490Z" fill-opacity="0.5" style="mix-blend-mode: multiply;"></path><linearGradient id="root1.d5" spreadMethod="pad" x1="0%" x2="0%" y1="0%" y2="100%"><stop offset="0%" stop-color="#ff7f0e"></stop><stop offset="100%" stop-color="#7f7f7f"></stop></linearGradient><path fill="url(#root1.d5)" d="M582.5675137519333,254C582.5675137519333,262.72,582.5675137519333,271.44,582.5675137519333,280.16C582.5675137519333,335.38666666666666,589.2309294656927,390.61333333333334,589.2309294656927,445.84C589.2309294656927,454.56,589.2309294656927,463.28,589.2309294656927,472C589.2309294656927,472,459.0746794656927,472,459.0746794656927,472C459.0746794656927,463.28,459.0746794656927,454.56,459.0746794656927,445.84C459.0746794656927,390.61333333333334,452.41126375193335,335.38666666666666,452.41126375193335,280.16C452.41126375193335,271.44,452.41126375193335,262.72,452.41126375193335,254C452.41126375193335,254,582.5675137519333,254,582.5675137519333,254Z" fill-opacity="0.5" style="mix-blend-mode: multiply;"></path><linearGradient id="d5.d51" spreadMethod="pad" x1="0%" x2="0%" y1="0%" y2="100%"><stop offset="0%" stop-color="#7f7f7f"></stop><stop offset="100%" stop-color="#17becf"></stop></linearGradient><path fill="url(#d5.d51)" d="M477.66842946569267,490C477.66842946569267,498.71999999999997,477.66842946569267,507.44,477.66842946569267,516.16C477.66842946569267,571.3866666666667,493.0625000000003,626.6133333333333,493.0625000000003,681.84C493.0625000000003,690.5600000000001,493.0625000000003,699.28,493.0625000000003,708C493.0625000000003,708,474.4687500000003,708,474.4687500000003,708C474.4687500000003,699.28,474.4687500000003,690.5600000000001,474.4687500000003,681.84C474.4687500000003,626.6133333333333,459.07467946569267,571.3866666666667,459.07467946569267,516.16C459.07467946569267,507.44,459.07467946569267,498.71999999999997,459.07467946569267,490C459.07467946569267,490,477.66842946569267,490,477.66842946569267,490Z" fill-opacity="0.5" style="mix-blend-mode: multiply;"></path><linearGradient id="d5.d52" spreadMethod="pad" x1="0%" x2="0%" y1="0%" y2="100%"><stop offset="0%" stop-color="#7f7f7f"></stop><stop offset="100%" stop-color="#1f77b4"></stop></linearGradient><path fill="url(#d5.d52)" d="M496.26217946569267,490C496.26217946569267,498.71999999999997,496.26217946569267,507.44,496.26217946569267,516.16C496.26217946569267,571.3866666666667,515.6562500000002,626.6133333333333,515.6562500000002,681.84C515.6562500000002,690.5600000000001,515.6562500000002,699.28,515.6562500000002,708C515.6562500000002,708,497.0625000000003,708,497.0625000000003,708C497.0625000000003,699.28,497.0625000000003,690.5600000000001,497.0625000000003,681.84C497.0625000000003,626.6133333333333,477.66842946569267,571.3866666666667,477.66842946569267,516.16C477.66842946569267,507.44,477.66842946569267,498.71999999999997,477.66842946569267,490C477.66842946569267,490,496.26217946569267,490,496.26217946569267,490Z" fill-opacity="0.5" style="mix-blend-mode: multiply;"></path><linearGradient id="d5.d53" spreadMethod="pad" x1="0%" x2="0%" y1="0%" y2="100%"><stop offset="0%" stop-color="#7f7f7f"></stop><stop offset="100%" stop-color="#ff7f0e"></stop></linearGradient><path fill="url(#d5.d53)" d="M514.8559294656927,490C514.8559294656927,498.71999999999997,514.8559294656927,507.44,514.8559294656927,516.16C514.8559294656927,571.3866666666667,538.2500000000003,626.6133333333333,538.2500000000003,681.84C538.2500000000003,690.5600000000001,538.2500000000003,699.28,538.2500000000003,708C538.2500000000003,708,519.6562500000003,708,519.6562500000003,708C519.6562500000003,699.28,519.6562500000003,690.5600000000001,519.6562500000003,681.84C519.6562500000003,626.6133333333333,496.26217946569267,571.3866666666667,496.26217946569267,516.16C496.26217946569267,507.44,496.26217946569267,498.71999999999997,496.26217946569267,490C496.26217946569267,490,514.8559294656927,490,514.8559294656927,490Z" fill-opacity="0.5" style="mix-blend-mode: multiply;"></path><linearGradient id="d5.d54" spreadMethod="pad" x1="0%" x2="0%" y1="0%" y2="100%"><stop offset="0%" stop-color="#7f7f7f"></stop><stop offset="100%" stop-color="#2ca02c"></stop></linearGradient><path fill="url(#d5.d54)" d="M533.4496794656927,490C533.4496794656927,498.71999999999997,533.4496794656927,507.44,533.4496794656927,516.16C533.4496794656927,571.3866666666667,560.8437500000002,626.6133333333333,560.8437500000002,681.84C560.8437500000002,690.5600000000001,560.8437500000002,699.28,560.8437500000002,708C560.8437500000002,708,542.2500000000002,708,542.2500000000002,708C542.2500000000002,699.28,542.2500000000002,690.5600000000001,542.2500000000002,681.84C542.2500000000002,626.6133333333333,514.8559294656927,571.3866666666667,514.8559294656927,516.16C514.8559294656927,507.44,514.8559294656927,498.71999999999997,514.8559294656927,490C514.8559294656927,490,533.4496794656927,490,533.4496794656927,490Z" fill-opacity="0.5" style="mix-blend-mode: multiply;"></path><linearGradient id="d5.d55" spreadMethod="pad" x1="0%" x2="0%" y1="0%" y2="100%"><stop offset="0%" stop-color="#7f7f7f"></stop><stop offset="100%" stop-color="#d62728"></stop></linearGradient><path fill="url(#d5.d55)" d="M552.0434294656927,490C552.0434294656927,498.71999999999997,552.0434294656927,507.44,552.0434294656927,516.16C552.0434294656927,571.3866666666667,583.4375,626.6133333333333,583.4375,681.84C583.4375,690.5600000000001,583.4375,699.28,583.4375,708C583.4375,708,564.84375,708,564.84375,708C564.84375,699.28,564.84375,690.5600000000001,564.84375,681.84C564.84375,626.6133333333333,533.4496794656927,571.3866666666667,533.4496794656927,516.16C533.4496794656927,507.44,533.4496794656927,498.71999999999997,533.4496794656927,490C533.4496794656927,490,552.0434294656927,490,552.0434294656927,490Z" fill-opacity="0.5" style="mix-blend-mode: multiply;"></path><linearGradient id="d5.d56" spreadMethod="pad" x1="0%" x2="0%" y1="0%" y2="100%"><stop offset="0%" stop-color="#7f7f7f"></stop><stop offset="100%" stop-color="#9467bd"></stop></linearGradient><path fill="url(#d5.d56)" d="M570.6371794656927,490C570.6371794656927,498.71999999999997,570.6371794656927,507.44,570.6371794656927,516.16C570.6371794656927,571.3866666666667,606.03125,626.6133333333333,606.03125,681.84C606.03125,690.5600000000001,606.03125,699.28,606.03125,708C606.03125,708,587.4375,708,587.4375,708C587.4375,699.28,587.4375,690.5600000000001,587.4375,681.84C587.4375,626.6133333333333,552.0434294656927,571.3866666666667,552.0434294656927,516.16C552.0434294656927,507.44,552.0434294656927,498.71999999999997,552.0434294656927,490C552.0434294656927,490,570.6371794656927,490,570.6371794656927,490Z" fill-opacity="0.5" style="mix-blend-mode: multiply;"></path><linearGradient id="d5.d57" spreadMethod="pad" x1="0%" x2="0%" y1="0%" y2="100%"><stop offset="0%" stop-color="#7f7f7f"></stop><stop offset="100%" stop-color="#8c564b"></stop></linearGradient><path fill="url(#d5.d57)" d="M589.2309294656927,490C589.2309294656927,498.71999999999997,589.2309294656927,507.44,589.2309294656927,516.16C589.2309294656927,571.3866666666667,628.625,626.6133333333333,628.625,681.84C628.625,690.5600000000001,628.625,699.28,628.625,708C628.625,708,610.03125,708,610.03125,708C610.03125,699.28,610.03125,690.5600000000001,610.03125,681.84C610.03125,626.6133333333333,570.6371794656927,571.3866666666667,570.6371794656927,516.16C570.6371794656927,507.44,570.6371794656927,498.71999999999997,570.6371794656927,490C570.6371794656927,490,589.2309294656927,490,589.2309294656927,490Z" fill-opacity="0.5" style="mix-blend-mode: multiply;"></path><linearGradient id="root1.d6" spreadMethod="pad" x1="0%" x2="0%" y1="0%" y2="100%"><stop offset="0%" stop-color="#ff7f0e"></stop><stop offset="100%" stop-color="#bcbd22"></stop></linearGradient><path fill="url(#root1.d6)" d="M656.9425137519333,254C656.9425137519333,262.72,656.9425137519333,271.44,656.9425137519333,280.16C656.9425137519333,335.38666666666666,667.9654531617584,390.61333333333334,667.9654531617584,445.84C667.9654531617584,454.56,667.9654531617584,463.28,667.9654531617584,472C667.9654531617584,472,593.5904531617584,472,593.5904531617584,472C593.5904531617584,463.28,593.5904531617584,454.56,593.5904531617584,445.84C593.5904531617584,390.61333333333334,582.5675137519333,335.38666666666666,582.5675137519333,280.16C582.5675137519333,271.44,582.5675137519333,262.72,582.5675137519333,254C582.5675137519333,254,656.9425137519333,254,656.9425137519333,254Z" fill-opacity="0.5" style="mix-blend-mode: multiply;"></path><linearGradient id="d6.d61" spreadMethod="pad" x1="0%" x2="0%" y1="0%" y2="100%"><stop offset="0%" stop-color="#bcbd22"></stop><stop offset="100%" stop-color="#e377c2"></stop></linearGradient><path fill="url(#d6.d61)" d="M612.1842031617584,490C612.1842031617584,498.71999999999997,612.1842031617584,507.44,612.1842031617584,516.16C612.1842031617584,571.3866666666667,651.21875,626.6133333333333,651.21875,681.84C651.21875,690.5600000000001,651.21875,699.28,651.21875,708C651.21875,708,632.625,708,632.625,708C632.625,699.28,632.625,690.5600000000001,632.625,681.84C632.625,626.6133333333333,593.5904531617584,571.3866666666667,593.5904531617584,516.16C593.5904531617584,507.44,593.5904531617584,498.71999999999997,593.5904531617584,490C593.5904531617584,490,612.1842031617584,490,612.1842031617584,490Z" fill-opacity="0.5" style="mix-blend-mode: multiply;"></path><linearGradient id="d6.d62" spreadMethod="pad" x1="0%" x2="0%" y1="0%" y2="100%"><stop offset="0%" stop-color="#bcbd22"></stop><stop offset="100%" stop-color="#7f7f7f"></stop></linearGradient><path fill="url(#d6.d62)" d="M630.7779531617584,490C630.7779531617584,498.71999999999997,630.7779531617584,507.44,630.7779531617584,516.16C630.7779531617584,571.3866666666667,673.8125,626.6133333333333,673.8125,681.84C673.8125,690.5600000000001,673.8125,699.28,673.8125,708C673.8125,708,655.21875,708,655.21875,708C655.21875,699.28,655.21875,690.5600000000001,655.21875,681.84C655.21875,626.6133333333333,612.1842031617584,571.3866666666667,612.1842031617584,516.16C612.1842031617584,507.44,612.1842031617584,498.71999999999997,612.1842031617584,490C612.1842031617584,490,630.7779531617584,490,630.7779531617584,490Z" fill-opacity="0.5" style="mix-blend-mode: multiply;"></path><linearGradient id="d6.d63" spreadMethod="pad" x1="0%" x2="0%" y1="0%" y2="100%"><stop offset="0%" stop-color="#bcbd22"></stop><stop offset="100%" stop-color="#bcbd22"></stop></linearGradient><path fill="url(#d6.d63)" d="M649.3717031617584,490C649.3717031617584,498.71999999999997,649.3717031617584,507.44,649.3717031617584,516.16C649.3717031617584,571.3866666666667,696.40625,626.6133333333333,696.40625,681.84C696.40625,690.5600000000001,696.40625,699.28,696.40625,708C696.40625,708,677.8125,708,677.8125,708C677.8125,699.28,677.8125,690.5600000000001,677.8125,681.84C677.8125,626.6133333333333,630.7779531617584,571.3866666666667,630.7779531617584,516.16C630.7779531617584,507.44,630.7779531617584,498.71999999999997,630.7779531617584,490C630.7779531617584,490,649.3717031617584,490,649.3717031617584,490Z" fill-opacity="0.5" style="mix-blend-mode: multiply;"></path><linearGradient id="d6.d64" spreadMethod="pad" x1="0%" x2="0%" y1="0%" y2="100%"><stop offset="0%" stop-color="#bcbd22"></stop><stop offset="100%" stop-color="#17becf"></stop></linearGradient><path fill="url(#d6.d64)" d="M667.9654531617584,490C667.9654531617584,498.71999999999997,667.9654531617584,507.44,667.9654531617584,516.16C667.9654531617584,571.3866666666667,719,626.6133333333333,719,681.84C719,690.5600000000001,719,699.28,719,708C719,708,700.40625,708,700.40625,708C700.40625,699.28,700.40625,690.5600000000001,700.40625,681.84C700.40625,626.6133333333333,649.3717031617584,571.3866666666667,649.3717031617584,516.16C649.3717031617584,507.44,649.3717031617584,498.71999999999997,649.3717031617584,490C649.3717031617584,490,667.9654531617584,490,667.9654531617584,490Z" fill-opacity="0.5" style="mix-blend-mode: multiply;"></path><linearGradient id="root0.root2" spreadMethod="pad" x1="0%" x2="0%" y1="0%" y2="100%"><stop offset="0%" stop-color="#1f77b4"></stop><stop offset="100%" stop-color="#2ca02c"></stop></linearGradient><path fill="url(#root0.root2)" d="M78.45455939497771,18C78.45455939497771,45.599999999999994,78.45455939497771,73.2,78.45455939497771,100.8C78.45455939497771,275.6,18.59375000000039,450.4,18.59375000000039,625.2C18.59375000000039,652.8000000000001,18.59375000000039,680.4,18.59375000000039,708C18.59375000000039,708,3.907985046680551e-13,708,3.907985046680551e-13,708C3.907985046680551e-13,680.4,3.907985046680551e-13,652.8000000000001,3.907985046680551e-13,625.2C3.907985046680551e-13,450.4,59.86080939497771,275.6,59.86080939497771,100.8C59.86080939497771,73.2,59.86080939497771,45.599999999999994,59.86080939497771,18C59.86080939497771,18,78.45455939497771,18,78.45455939497771,18Z" fill-opacity="0.5" style="mix-blend-mode: multiply;"></path></g><rect x="59.860809394977714" y="2" width="595" height="14" fill="#1f77b4" fill-opacity="1" stroke-width="0" stroke="rgb(26, 100, 151)" stroke-opacity="1"></rect><rect x="80.53626375193336" y="238" width="576.4062500000001" height="14" fill="#ff7f0e" fill-opacity="1" stroke-width="0" stroke="rgb(213, 106, 12)" stroke-opacity="1"></rect><rect x="3.907985046680551e-13" y="710" width="18.593750000000007" height="14" fill="#2ca02c" fill-opacity="1" stroke-width="0" stroke="rgb(37, 134, 37)" stroke-opacity="1"></rect><rect x="69.45260596081037" y="474" width="55.781249999999986" height="14" fill="#d62728" fill-opacity="1" stroke-width="0" stroke="rgb(179, 33, 33)" stroke-opacity="1"></rect><rect x="129.6944145105462" y="474" width="130.15625000000006" height="14" fill="#9467bd" fill-opacity="1" stroke-width="0" stroke="rgb(124, 86, 158)" stroke-opacity="1"></rect><rect x="264.43554785405496" y="474" width="111.5625" height="14" fill="#8c564b" fill-opacity="1" stroke-width="0" stroke="rgb(117, 72, 63)" stroke-opacity="1"></rect><rect x="380.3736041535735" y="474" width="74.375" height="14" fill="#e377c2" fill-opacity="1" stroke-width="0" stroke="rgb(190, 100, 162)" stroke-opacity="1"></rect><rect x="459.07467946569267" y="474" width="130.15625000000017" height="14" fill="#7f7f7f" fill-opacity="1" stroke-width="0" stroke="rgb(106, 106, 106)" stroke-opacity="1"></rect><rect x="593.5904531617584" y="474" width="74.375" height="14" fill="#bcbd22" fill-opacity="1" stroke-width="0" stroke="rgb(157, 158, 28)" stroke-opacity="1"></rect><rect x="22.593750000000398" y="710" width="18.59374999999997" height="14" fill="#17becf" fill-opacity="1" stroke-width="0" stroke="rgb(19, 159, 173)" stroke-opacity="1"></rect><rect x="45.18750000000037" y="710" width="18.59375" height="14" fill="#1f77b4" fill-opacity="1" stroke-width="0" stroke="rgb(26, 100, 151)" stroke-opacity="1"></rect><rect x="67.78125000000037" y="710" width="18.59375" height="14" fill="#ff7f0e" fill-opacity="1" stroke-width="0" stroke="rgb(213, 106, 12)" stroke-opacity="1"></rect><rect x="90.37500000000037" y="710" width="18.59374999999997" height="14" fill="#2ca02c" fill-opacity="1" stroke-width="0" stroke="rgb(37, 134, 37)" stroke-opacity="1"></rect><rect x="112.96875000000034" y="710" width="18.59375" height="14" fill="#d62728" fill-opacity="1" stroke-width="0" stroke="rgb(179, 33, 33)" stroke-opacity="1"></rect><rect x="135.56250000000034" y="710" width="18.59375" height="14" fill="#9467bd" fill-opacity="1" stroke-width="0" stroke="rgb(124, 86, 158)" stroke-opacity="1"></rect><rect x="158.15625000000034" y="710" width="18.59375" height="14" fill="#8c564b" fill-opacity="1" stroke-width="0" stroke="rgb(117, 72, 63)" stroke-opacity="1"></rect><rect x="180.75000000000034" y="710" width="18.59375" height="14" fill="#e377c2" fill-opacity="1" stroke-width="0" stroke="rgb(190, 100, 162)" stroke-opacity="1"></rect><rect x="203.34375000000034" y="710" width="18.59375" height="14" fill="#7f7f7f" fill-opacity="1" stroke-width="0" stroke="rgb(106, 106, 106)" stroke-opacity="1"></rect><rect x="225.93750000000034" y="710" width="18.593750000000057" height="14" fill="#bcbd22" fill-opacity="1" stroke-width="0" stroke="rgb(157, 158, 28)" stroke-opacity="1"></rect><rect x="248.5312500000004" y="710" width="18.593749999999886" height="14" fill="#17becf" fill-opacity="1" stroke-width="0" stroke="rgb(19, 159, 173)" stroke-opacity="1"></rect><rect x="271.1250000000003" y="710" width="18.59375" height="14" fill="#1f77b4" fill-opacity="1" stroke-width="0" stroke="rgb(26, 100, 151)" stroke-opacity="1"></rect><rect x="293.7187500000003" y="710" width="18.59375" height="14" fill="#ff7f0e" fill-opacity="1" stroke-width="0" stroke="rgb(213, 106, 12)" stroke-opacity="1"></rect><rect x="316.3125000000003" y="710" width="18.59375" height="14" fill="#2ca02c" fill-opacity="1" stroke-width="0" stroke="rgb(37, 134, 37)" stroke-opacity="1"></rect><rect x="338.9062500000003" y="710" width="18.59375" height="14" fill="#d62728" fill-opacity="1" stroke-width="0" stroke="rgb(179, 33, 33)" stroke-opacity="1"></rect><rect x="361.5000000000003" y="710" width="18.59375" height="14" fill="#9467bd" fill-opacity="1" stroke-width="0" stroke="rgb(124, 86, 158)" stroke-opacity="1"></rect><rect x="384.0937500000003" y="710" width="18.59375" height="14" fill="#8c564b" fill-opacity="1" stroke-width="0" stroke="rgb(117, 72, 63)" stroke-opacity="1"></rect><rect x="406.6875000000003" y="710" width="18.59375" height="14" fill="#e377c2" fill-opacity="1" stroke-width="0" stroke="rgb(190, 100, 162)" stroke-opacity="1"></rect><rect x="429.2812500000003" y="710" width="18.59375" height="14" fill="#7f7f7f" fill-opacity="1" stroke-width="0" stroke="rgb(106, 106, 106)" stroke-opacity="1"></rect><rect x="451.8750000000003" y="710" width="18.59375" height="14" fill="#bcbd22" fill-opacity="1" stroke-width="0" stroke="rgb(157, 158, 28)" stroke-opacity="1"></rect><rect x="474.4687500000003" y="710" width="18.59375" height="14" fill="#17becf" fill-opacity="1" stroke-width="0" stroke="rgb(19, 159, 173)" stroke-opacity="1"></rect><rect x="497.0625000000003" y="710" width="18.593750000000057" height="14" fill="#1f77b4" fill-opacity="1" stroke-width="0" stroke="rgb(26, 100, 151)" stroke-opacity="1"></rect><rect x="519.6562500000003" y="710" width="18.593749999999886" height="14" fill="#ff7f0e" fill-opacity="1" stroke-width="0" stroke="rgb(213, 106, 12)" stroke-opacity="1"></rect><rect x="542.2500000000002" y="710" width="18.593749999999773" height="14" fill="#2ca02c" fill-opacity="1" stroke-width="0" stroke="rgb(37, 134, 37)" stroke-opacity="1"></rect><rect x="564.84375" y="710" width="18.59375" height="14" fill="#d62728" fill-opacity="1" stroke-width="0" stroke="rgb(179, 33, 33)" stroke-opacity="1"></rect><rect x="587.4375" y="710" width="18.59375" height="14" fill="#9467bd" fill-opacity="1" stroke-width="0" stroke="rgb(124, 86, 158)" stroke-opacity="1"></rect><rect x="610.03125" y="710" width="18.59375" height="14" fill="#8c564b" fill-opacity="1" stroke-width="0" stroke="rgb(117, 72, 63)" stroke-opacity="1"></rect><rect x="632.625" y="710" width="18.59375" height="14" fill="#e377c2" fill-opacity="1" stroke-width="0" stroke="rgb(190, 100, 162)" stroke-opacity="1"></rect><rect x="655.21875" y="710" width="18.59375" height="14" fill="#7f7f7f" fill-opacity="1" stroke-width="0" stroke="rgb(106, 106, 106)" stroke-opacity="1"></rect><rect x="677.8125" y="710" width="18.59375" height="14" fill="#bcbd22" fill-opacity="1" stroke-width="0" stroke="rgb(157, 158, 28)" stroke-opacity="1"></rect><rect x="700.40625" y="710" width="18.59375" height="14" fill="#17becf" fill-opacity="1" stroke-width="0" stroke="rgb(19, 159, 173)" stroke-opacity="1"></rect></g></svg>